JosefinSlab-LightItalic_fik.ufo
<glyph name="exclam" format="1">
  <advance width="240"/>
  <unicode hex="0021"/>
  <outline>
    <contour>
      <point x="161" y="753" type="line"/>
      <point x="198" y="753" type="line"/>
      <point x="125" y="167" type="line"/>
      <point x="89" y="167" type="line"/>
    </contour>
    <contour>
      <point x="91" y="25" type="qcurve"/>
      <point x="80" y="25"/>
      <point x="63" y="42"/>
      <point x="65" y="55" type="qcurve"/>
      <point x="66" y="69"/>
      <point x="86" y="86"/>
      <point x="98" y="86" type="qcurve"/>
      <point x="109" y="86"/>
      <point x="126" y="69"/>
      <point x="124" y="55" type="qcurve"/>
      <point x="123" y="42"/>
      <point x="102" y="25"/>
    </contour>
  </outline>
</glyph>
<glyph name="dollar" format="1">
  <advance width="542"/>
  <unicode hex="0024"/>
  <outline>
    <contour>
      <point x="457" y="572" type="line"/>
      <point x="466" y="648" type="line"/>
      <point x="437" y="658"/>
      <point x="367" y="673"/>
      <point x="333" y="673" type="qcurve"/>
      <point x="329" y="673" type="line"/>
      <point x="296" y="406" type="line"/>
      <point x="330" y="393"/>
      <point x="397" y="363"/>
      <point x="451" y="319"/>
      <point x="484" y="258"/>
      <point x="484" y="214" type="qcurve"/>
      <point x="484" y="166"/>
      <point x="450" y="87"/>
      <point x="387" y="29"/>
      <point x="299" y="-4"/>
      <point x="245" y="-7" type="qcurve"/>
      <point x="238" y="-68" type="line"/>
      <point x="210" y="-68" type="line"/>
      <point x="217" y="-8" type="line"/>
      <point x="178" y="-7"/>
      <point x="114" y="10"/>
      <point x="66" y="33"/>
      <point x="33" y="55"/>
      <point x="24" y="62" type="qcurve"/>
      <point x="36" y="161" type="line"/>
      <point x="75" y="161" type="line"/>
      <point x="66" y="86" type="line"/>
      <point x="95" y="66"/>
      <point x="177" y="34"/>
      <point x="222" y="32" type="qcurve"/>
      <point x="264" y="375" type="line"/>
      <point x="234" y="387"/>
      <point x="178" y="412"/>
      <point x="134" y="446"/>
      <point x="108" y="492"/>
      <point x="108" y="524" type="qcurve"/>
      <point x="108" y="559"/>
      <point x="137" y="623"/>
      <point x="190" y="673"/>
      <point x="262" y="706"/>
      <point x="305" y="710" type="qcurve"/>
      <point x="313" y="772" type="line"/>
      <point x="341" y="772" type="line"/>
      <point x="333" y="711" type="line"/>
      <point x="356" y="711"/>
      <point x="407" y="703"/>
      <point x="454" y="692"/>
      <point x="494" y="679"/>
      <point x="508" y="672" type="qcurve"/>
      <point x="496" y="572" type="line"/>
    </contour>
    <contour>
      <point x="443" y="210" type="qcurve"/>
      <point x="443" y="243"/>
      <point x="417" y="290"/>
      <point x="375" y="326"/>
      <point x="320" y="352"/>
      <point x="291" y="364" type="qcurve"/>
      <point x="250" y="33" type="line"/>
      <point x="284" y="35"/>
      <point x="352" y="59"/>
      <point x="408" y="102"/>
      <point x="443" y="167"/>
    </contour>
    <contour>
      <point x="150" y="532" type="qcurve"/>
      <point x="150" y="509"/>
      <point x="169" y="474"/>
      <point x="201" y="447"/>
      <point x="245" y="426"/>
      <point x="269" y="416" type="qcurve"/>
      <point x="300" y="671" type="line"/>
      <point x="266" y="666"/>
      <point x="210" y="641"/>
      <point x="171" y="604"/>
      <point x="150" y="557"/>
    </contour>
  </outline>
</glyph>
<glyph name="ampersand" format="1">
  <advance width="667"/>
  <unicode hex="0026"/>
  <outline>
    <contour>
      <point x="617" y="37" type="line"/>
      <point x="612" y="0" type="line"/>
      <point x="520" y="0" type="line"/>
      <point x="513" y="10"/>
      <point x="504" y="24" type="qcurve"/>
      <point x="496" y="35"/>
      <point x="474" y="68"/>
      <point x="461" y="88" type="qcurve"/>
      <point x="426" y="47"/>
      <point x="310" y="-7"/>
      <point x="244" y="-7" type="qcurve"/>
      <point x="197" y="-7"/>
      <point x="121" y="21"/>
      <point x="67" y="69"/>
      <point x="38" y="134"/>
      <point x="38" y="172" type="qcurve"/>
      <point x="38" y="216"/>
      <point x="75" y="293"/>
      <point x="137" y="351"/>
      <point x="218" y="389"/>
      <point x="261" y="395" type="qcurve"/>
      <point x="236" y="434"/>
      <point x="202" y="488"/>
      <point x="200" y="496" type="qcurve"/>
      <point x="191" y="516"/>
      <point x="178" y="558"/>
      <point x="178" y="584" type="qcurve"/>
      <point x="178" y="622"/>
      <point x="208" y="683"/>
      <point x="258" y="727"/>
      <point x="323" y="751"/>
      <point x="359" y="751" type="qcurve"/>
      <point x="401" y="751"/>
      <point x="468" y="725"/>
      <point x="490" y="709" type="qcurve"/>
      <point x="490" y="708"/>
      <point x="484" y="701"/>
      <point x="477" y="692"/>
      <point x="471" y="685"/>
      <point x="470" y="684" type="qcurve"/>
      <point x="447" y="698"/>
      <point x="395" y="717"/>
      <point x="366" y="718" type="qcurve"/>
      <point x="337" y="719"/>
      <point x="282" y="701"/>
      <point x="240" y="667"/>
      <point x="215" y="617"/>
      <point x="215" y="586" type="qcurve"/>
      <point x="215" y="554"/>
      <point x="232" y="511"/>
      <point x="233" y="510" type="qcurve"/>
      <point x="464" y="152" type="line"/>
      <point x="587" y="397" type="line"/>
      <point x="625" y="397" type="line"/>
      <point x="484" y="120" type="line"/>
      <point x="538" y="37" type="line"/>
    </contour>
    <contour>
      <point x="282" y="362" type="qcurve"/>
      <point x="247" y="361"/>
      <point x="174" y="333"/>
      <point x="114" y="285"/>
      <point x="75" y="217"/>
      <point x="75" y="175" type="qcurve"/>
      <point x="75" y="140"/>
      <point x="103" y="86"/>
      <point x="150" y="47"/>
      <point x="213" y="27"/>
      <point x="249" y="27" type="qcurve"/>
      <point x="278" y="27"/>
      <point x="335" y="41"/>
      <point x="387" y="65"/>
      <point x="429" y="97"/>
      <point x="443" y="115" type="qcurve"/>
      <point x="407" y="171"/>
      <point x="320" y="303"/>
    </contour>
  </outline>
</glyph>
<glyph name="parenleft" format="1">
  <advance width="264"/>
  <unicode hex="0028"/>
  <outline>
    <contour>
      <point x="47" y="219" type="qcurve"/>
      <point x="47" y="307"/>
      <point x="87" y="467"/>
      <point x="152" y="602"/>
      <point x="233" y="711"/>
      <point x="274" y="750" type="qcurve"/>
      <point x="297" y="727" type="line"/>
      <point x="259" y="689"/>
      <point x="183" y="585"/>
      <point x="122" y="457"/>
      <point x="84" y="307"/>
      <point x="84" y="223" type="qcurve"/>
      <point x="84" y="164"/>
      <point x="101" y="57"/>
      <point x="131" y="-36"/>
      <point x="169" y="-113"/>
      <point x="190" y="-141" type="qcurve"/>
      <point x="162" y="-164" type="line"/>
      <point x="139" y="-136"/>
      <point x="97" y="-56"/>
      <point x="65" y="43"/>
      <point x="47" y="157"/>
    </contour>
  </outline>
</glyph>
<glyph name="parenright" format="1">
  <advance width="264"/>
  <unicode hex="0029"/>
  <outline>
    <contour>
      <point x="223" y="366" type="qcurve"/>
      <point x="223" y="277"/>
      <point x="183" y="118"/>
      <point x="118" y="-17"/>
      <point x="37" y="-126"/>
      <point x="-4" y="-165" type="qcurve"/>
      <point x="-27" y="-142" type="line"/>
      <point x="11" y="-104"/>
      <point x="87" y="0"/>
      <point x="148" y="127"/>
      <point x="186" y="278"/>
      <point x="186" y="362" type="qcurve"/>
      <point x="186" y="420"/>
      <point x="169" y="527"/>
      <point x="139" y="620"/>
      <point x="101" y="697"/>
      <point x="80" y="725" type="qcurve"/>
      <point x="108" y="749" type="line"/>
      <point x="131" y="720"/>
      <point x="173" y="640"/>
      <point x="204" y="542"/>
      <point x="223" y="428"/>
    </contour>
  </outline>
</glyph>
<glyph name="one" format="1">
  <advance width="293"/>
  <unicode hex="0031"/>
  <outline>
    <contour>
      <point x="82" y="617" type="line"/>
      <point x="86" y="653" type="line"/>
      <point x="222" y="653" type="line"/>
      <point x="142" y="0" type="line"/>
      <point x="105" y="0" type="line"/>
      <point x="181" y="617" type="line"/>
    </contour>
  </outline>
</glyph>
<glyph name="two" format="1">
  <advance width="542"/>
  <unicode hex="0032"/>
  <outline>
    <contour>
      <point x="126" y="35" type="qcurve"/>
      <point x="418" y="35" type="line"/>
      <point x="432" y="149" type="line"/>
      <point x="469" y="149" type="line"/>
      <point x="451" y="0" type="line"/>
      <point x="33" y="0" type="line"/>
      <point x="108" y="65"/>
      <point x="249" y="190"/>
      <point x="357" y="309"/>
      <point x="423" y="423"/>
      <point x="423" y="476" type="qcurve"/>
      <point x="423" y="518"/>
      <point x="398" y="575"/>
      <point x="360" y="610"/>
      <point x="315" y="625"/>
      <point x="294" y="625" type="qcurve"/>
      <point x="243" y="625"/>
      <point x="175" y="586"/>
      <point x="136" y="531"/>
      <point x="120" y="469"/>
      <point x="120" y="445" type="qcurve"/>
      <point x="120" y="391"/>
      <point x="148" y="355" type="qcurve"/>
      <point x="124" y="333" type="line"/>
      <point x="104" y="353"/>
      <point x="84" y="413"/>
      <point x="84" y="446" type="qcurve"/>
      <point x="84" y="489"/>
      <point x="113" y="567"/>
      <point x="168" y="626"/>
      <point x="248" y="661"/>
      <point x="298" y="661" type="qcurve"/>
      <point x="336" y="661"/>
      <point x="396" y="634"/>
      <point x="438" y="587"/>
      <point x="461" y="523"/>
      <point x="461" y="486" type="qcurve"/>
      <point x="461" y="426"/>
      <point x="400" y="312"/>
      <point x="304" y="200"/>
      <point x="184" y="90"/>
    </contour>
  </outline>
</glyph>
<glyph name="eight" format="1">
  <advance width="535"/>
  <unicode hex="0038"/>
  <outline>
    <contour>
      <point x="180" y="499" type="qcurve"/>
      <point x="180" y="459"/>
      <point x="239" y="407"/>
      <point x="284" y="407" type="qcurve"/>
      <point x="309" y="407"/>
      <point x="355" y="424"/>
      <point x="389" y="455"/>
      <point x="410" y="497"/>
      <point x="410" y="521" type="qcurve"/>
      <point x="410" y="542"/>
      <point x="395" y="580"/>
      <point x="369" y="608"/>
      <point x="332" y="625"/>
      <point x="310" y="625" type="qcurve"/>
      <point x="284" y="625"/>
      <point x="237" y="604"/>
      <point x="201" y="569"/>
      <point x="180" y="524"/>
    </contour>
    <contour>
      <point x="86" y="183" type="qcurve"/>
      <point x="86" y="151"/>
      <point x="108" y="94"/>
      <point x="148" y="52"/>
      <point x="203" y="27"/>
      <point x="236" y="27" type="qcurve"/>
      <point x="274" y="27"/>
      <point x="345" y="58"/>
      <point x="400" y="110"/>
      <point x="433" y="179"/>
      <point x="433" y="217" type="qcurve"/>
      <point x="433" y="249"/>
      <point x="410" y="305"/>
      <point x="368" y="346"/>
      <point x="312" y="370"/>
      <point x="279" y="370" type="qcurve"/>
      <point x="241" y="370"/>
      <point x="171" y="341"/>
      <point x="118" y="290"/>
      <point x="86" y="222"/>
    </contour>
    <contour>
      <point x="48" y="178" type="qcurve"/>
      <point x="48" y="217"/>
      <point x="75" y="287"/>
      <point x="120" y="342"/>
      <point x="180" y="382"/>
      <point x="214" y="391" type="qcurve"/>
      <point x="182" y="404"/>
      <point x="145" y="462"/>
      <point x="145" y="498" type="qcurve"/>
      <point x="145" y="532"/>
      <point x="172" y="591"/>
      <point x="219" y="635"/>
      <point x="280" y="661"/>
      <point x="313" y="661" type="qcurve"/>
      <point x="341" y="661"/>
      <point x="390" y="640"/>
      <point x="425" y="603"/>
      <point x="445" y="553"/>
      <point x="445" y="525" type="qcurve"/>
      <point x="445" y="479"/>
      <point x="390" y="408"/>
      <point x="348" y="391" type="qcurve"/>
      <point x="402" y="376"/>
      <point x="470" y="284"/>
      <point x="470" y="220" type="qcurve"/>
      <point x="470" y="174"/>
      <point x="432" y="92"/>
      <point x="366" y="29"/>
      <point x="280" y="-8"/>
      <point x="232" y="-8" type="qcurve"/>
      <point x="191" y="-8"/>
      <point x="123" y="21"/>
      <point x="75" y="72"/>
      <point x="48" y="140"/>
    </contour>
  </outline>
</glyph>
<glyph name="nine" format="1">
  <advance width="533"/>
  <unicode hex="0039"/>
  <outline>
    <contour>
      <point x="495" y="430" type="qcurve"/>
      <point x="486" y="355"/>
      <point x="405" y="228"/>
      <point x="293" y="120"/>
      <point x="166" y="30"/>
      <point x="109" y="-8" type="qcurve"/>
      <point x="90" y="21" type="line"/>
      <point x="150" y="58"/>
      <point x="251" y="133"/>
      <point x="330" y="202"/>
      <point x="385" y="264"/>
      <point x="399" y="288" type="qcurve"/>
      <point x="373" y="259"/>
      <point x="301" y="223"/>
      <point x="260" y="223" type="qcurve"/>
      <point x="220" y="223"/>
      <point x="152" y="252"/>
      <point x="102" y="302"/>
      <point x="74" y="370"/>
      <point x="74" y="409" type="qcurve"/>
      <point x="74" y="455"/>
      <point x="113" y="538"/>
      <point x="179" y="601"/>
      <point x="264" y="637"/>
      <point x="310" y="637" type="qcurve"/>
      <point x="351" y="637"/>
      <point x="423" y="607"/>
      <point x="475" y="552"/>
      <point x="500" y="476"/>
    </contour>
    <contour>
      <point x="458" y="430" type="qcurve"/>
      <point x="462" y="466"/>
      <point x="443" y="528"/>
      <point x="402" y="574"/>
      <point x="343" y="601"/>
      <point x="307" y="601" type="qcurve"/>
      <point x="269" y="601"/>
      <point x="198" y="571"/>
      <point x="144" y="520"/>
      <point x="111" y="452"/>
      <point x="111" y="413" type="qcurve"/>
      <point x="111" y="381"/>
      <point x="134" y="324"/>
      <point x="176" y="282"/>
      <point x="232" y="258"/>
      <point x="265" y="258" type="qcurve"/>
      <point x="301" y="258"/>
      <point x="367" y="285"/>
      <point x="419" y="332"/>
      <point x="454" y="394"/>
    </contour>
  </outline>
</glyph>
<glyph name="semicolon" format="1">
  <advance width="245"/>
  <unicode hex="003B"/>
  <outline>
    <contour>
      <point x="103" y="278" type="qcurve"/>
      <point x="103" y="292"/>
      <point x="124" y="312"/>
      <point x="137" y="312" type="qcurve"/>
      <point x="148" y="312"/>
      <point x="164" y="296"/>
      <point x="164" y="284" type="qcurve"/>
      <point x="164" y="270"/>
      <point x="142" y="251"/>
      <point x="130" y="251" type="qcurve"/>
      <point x="119" y="251"/>
      <point x="103" y="266"/>
    </contour>
    <contour>
      <point x="127" y="86" type="line"/>
      <point x="113" y="60"/>
      <point x="95" y="28"/>
      <point x="79" y="-1"/>
      <point x="61" y="-34"/>
      <point x="47" y="-60" type="qcurve"/>
      <point x="15" y="-60" type="line"/>
      <point x="28" y="-34"/>
      <point x="44" y="-1"/>
      <point x="58" y="28"/>
      <point x="74" y="60"/>
      <point x="87" y="86" type="qcurve"/>
    </contour>
  </outline>
</glyph>
<glyph name="F" format="1">
  <advance width="522"/>
  <unicode hex="0046"/>
  <outline>
    <contour>
      <point x="479" y="596" type="line"/>
      <point x="488" y="669" type="line"/>
      <point x="229" y="669" type="line"/>
      <point x="193" y="375" type="line"/>
      <point x="452" y="375" type="line"/>
      <point x="447" y="337" type="line"/>
      <point x="188" y="337" type="line"/>
      <point x="151" y="37" type="line"/>
      <point x="235" y="37" type="line"/>
      <point x="230" y="0" type="line"/>
      <point x="29" y="0" type="line"/>
      <point x="34" y="37" type="line"/>
      <point x="110" y="37" type="line"/>
      <point x="188" y="670" type="line"/>
      <point x="111" y="670" type="line"/>
      <point x="116" y="707" type="line"/>
      <point x="532" y="707" type="line"/>
      <point x="530" y="690" type="line"/>
      <point x="518" y="596" type="line"/>
    </contour>
  </outline>
</glyph>
<glyph name="H" format="1">
  <advance width="796"/>
  <unicode hex="0048"/>
  <outline>
    <contour>
      <point x="788" y="707" type="line"/>
      <point x="784" y="670" type="line"/>
      <point x="706" y="670" type="line"/>
      <point x="628" y="37" type="line"/>
      <point x="706" y="37" type="line"/>
      <point x="702" y="0" type="line"/>
      <point x="500" y="0" type="line"/>
      <point x="505" y="37" type="line"/>
      <point x="587" y="37" type="line"/>
      <point x="624" y="337" type="line"/>
      <point x="189" y="337" type="line"/>
      <point x="152" y="37" type="line"/>
      <point x="235" y="37" type="line"/>
      <point x="230" y="0" type="line"/>
      <point x="29" y="0" type="line"/>
      <point x="34" y="37" type="line"/>
      <point x="111" y="37" type="line"/>
      <point x="188" y="670" type="line"/>
      <point x="111" y="670" type="line"/>
      <point x="116" y="707" type="line"/>
      <point x="317" y="707" type="line"/>
      <point x="312" y="670" type="line"/>
      <point x="230" y="670" type="line"/>
      <point x="194" y="376" type="line"/>
      <point x="629" y="376" type="line"/>
      <point x="665" y="670" type="line"/>
      <point x="582" y="670" type="line"/>
      <point x="587" y="707" type="line"/>
    </contour>
  </outline>
</glyph>
<glyph name="L" format="1">
  <advance width="600"/>
  <unicode hex="004C"/>
  <outline>
    <contour>
      <point x="317" y="707" type="line"/>
      <point x="312" y="670" type="line"/>
      <point x="229" y="670" type="line"/>
      <point x="152" y="40" type="line"/>
      <point x="513" y="40" type="line"/>
      <point x="522" y="114" type="line"/>
      <point x="561" y="114" type="line"/>
      <point x="549" y="16" type="line"/>
      <point x="541" y="16" type="line"/>
      <point x="539" y="0" type="line"/>
      <point x="29" y="0" type="line"/>
      <point x="34" y="37" type="line"/>
      <point x="110" y="37" type="line"/>
      <point x="188" y="670" type="line"/>
      <point x="111" y="670" type="line"/>
      <point x="116" y="707" type="line"/>
    </contour>
  </outline>
</glyph>
<glyph name="N" format="1">
  <advance width="858"/>
  <unicode hex="004E"/>
  <outline>
    <contour>
      <point x="234" y="37" type="line"/>
      <point x="229" y="0" type="line"/>
      <point x="28" y="0" type="line"/>
      <point x="33" y="37" type="line"/>
      <point x="110" y="37" type="line"/>
      <point x="187" y="670" type="line"/>
      <point x="109" y="670" type="line"/>
      <point x="114" y="707" type="line"/>
      <point x="220" y="707" type="line"/>
      <point x="269" y="634"/>
      <point x="380" y="476"/>
      <point x="494" y="317"/>
      <point x="603" y="161"/>
      <point x="649" y="91" type="qcurve"/>
      <point x="665" y="65" type="line"/>
      <point x="666" y="73"/>
      <point x="666" y="89"/>
      <point x="666" y="97" type="qcurve"/>
      <point x="736" y="671" type="line"/>
      <point x="652" y="671" type="line"/>
      <point x="657" y="708" type="line"/>
      <point x="858" y="708" type="line"/>
      <point x="853" y="671" type="line"/>
      <point x="777" y="671" type="line"/>
      <point x="691" y="-32" type="line"/>
      <point x="659" y="15"/>
      <point x="583" y="122"/>
      <point x="502" y="236"/>
      <point x="419" y="352"/>
      <point x="340" y="465"/>
      <point x="268" y="571"/>
      <point x="239" y="617" type="qcurve"/>
      <point x="236" y="622"/>
      <point x="226" y="636"/>
      <point x="222" y="643" type="qcurve"/>
      <point x="222" y="611" type="line"/>
      <point x="151" y="37" type="line"/>
    </contour>
  </outline>
</glyph>
<glyph name="X" format="1">
  <advance width="643"/>
  <unicode hex="0058"/>
  <outline>
    <contour>
      <point x="277" y="707" type="line"/>
      <point x="272" y="670" type="line"/>
      <point x="193" y="670" type="line"/>
      <point x="209" y="639"/>
      <point x="245" y="571"/>
      <point x="280" y="502"/>
      <point x="314" y="436"/>
      <point x="329" y="409" type="qcurve"/>
      <point x="333" y="402"/>
      <point x="337" y="390" type="qcurve"/>
      <point x="340" y="395"/>
      <point x="347" y="407"/>
      <point x="350" y="409" type="qcurve"/>
      <point x="374" y="441"/>
      <point x="432" y="518"/>
      <point x="492" y="598"/>
      <point x="550" y="675"/>
      <point x="574" y="707" type="qcurve"/>
      <point x="660" y="707" type="line"/>
      <point x="656" y="670" type="line"/>
      <point x="592" y="670" type="line"/>
      <point x="357" y="361" type="line"/>
      <point x="528" y="37" type="line"/>
      <point x="612" y="37" type="line"/>
      <point x="608" y="0" type="line"/>
      <point x="406" y="0" type="line"/>
      <point x="411" y="37" type="line"/>
      <point x="477" y="37" type="line"/>
      <point x="356" y="267" type="line"/>
      <point x="349" y="281"/>
      <point x="332" y="319"/>
      <point x="324" y="332" type="qcurve"/>
      <point x="321" y="327"/>
      <point x="314" y="317"/>
      <point x="312" y="315" type="qcurve"/>
      <point x="75" y="0" type="line"/>
      <point x="-14" y="0" type="line"/>
      <point x="-9" y="37" type="line"/>
      <point x="55" y="37" type="line"/>
      <point x="83" y="74"/>
      <point x="150" y="161"/>
      <point x="217" y="249"/>
      <point x="280" y="331"/>
      <point x="304" y="363" type="qcurve"/>
      <point x="289" y="393"/>
      <point x="248" y="470"/>
      <point x="204" y="553"/>
      <point x="161" y="635"/>
      <point x="143" y="670" type="qcurve"/>
      <point x="71" y="670" type="line"/>
      <point x="76" y="707" type="line"/>
    </contour>
  </outline>
</glyph>
<glyph name="bracketright" format="1">
  <advance width="301"/>
  <unicode hex="005D"/>
  <outline>
    <contour>
      <point x="261" y="749" type="line"/>
      <point x="151" y="-150" type="line"/>
      <point x="-22" y="-150" type="line"/>
      <point x="-18" y="-114" type="line"/>
      <point x="118" y="-114" type="line"/>
      <point x="219" y="713" type="line"/>
      <point x="84" y="713" type="line"/>
      <point x="88" y="749" type="line"/>
    </contour>
  </outline>
</glyph>
<glyph name="asciicircum" format="1">
  <advance width="399"/>
  <unicode hex="005E"/>
  <outline>
    <contour>
      <point x="248" y="663" type="line"/>
      <point x="273" y="617"/>
      <point x="321" y="526"/>
      <point x="347" y="481" type="qcurve"/>
      <point x="317" y="481" type="line"/>
      <point x="300" y="512"/>
      <point x="260" y="582"/>
      <point x="242" y="613" type="qcurve"/>
      <point x="218" y="582"/>
      <point x="160" y="512"/>
      <point x="135" y="481" type="qcurve"/>
      <point x="106" y="481" type="line"/>
    </contour>
  </outline>
</glyph>
<glyph name="underscore" format="1">
  <advance width="540"/>
  <unicode hex="005F"/>
  <outline>
    <contour>
      <point x="439" y="0" type="line"/>
      <point x="37" y="0" type="line"/>
      <point x="42" y="35" type="line"/>
      <point x="444" y="35" type="line"/>
    </contour>
  </outline>
</glyph>
<glyph name="grave" format="1">
  <advance width="201"/>
  <unicode hex="0060"/>
  <outline>
    <contour>
      <point x="87" y="614" type="line"/>
      <point x="162" y="481" type="line"/>
      <point x="132" y="481" type="line"/>
      <point x="111" y="514"/>
      <point x="70" y="581"/>
      <point x="50" y="614" type="qcurve"/>
    </contour>
  </outline>
</glyph>
<glyph name="b" format="1">
  <advance width="537"/>
  <unicode hex="0062"/>
  <outline>
    <contour>
      <point x="488" y="194" type="qcurve"/>
      <point x="483" y="152"/>
      <point x="443" y="78"/>
      <point x="382" y="24"/>
      <point x="305" y="-7"/>
      <point x="262" y="-7" type="qcurve"/>
      <point x="203" y="-7"/>
      <point x="118" y="54"/>
      <point x="104" y="99" type="qcurve"/>
      <point x="99" y="48" type="line"/>
      <point x="93" y="0" type="line"/>
      <point x="-16" y="0" type="line"/>
      <point x="-12" y="31" type="line"/>
      <point x="62" y="31" type="line"/>
      <point x="147" y="727" type="line"/>
      <point x="73" y="727" type="line"/>
      <point x="77" y="758" type="line"/>
      <point x="186" y="758" type="line"/>
      <point x="128" y="288" type="line"/>
      <point x="141" y="310"/>
      <point x="180" y="350"/>
      <point x="227" y="379"/>
      <point x="282" y="396"/>
      <point x="312" y="396" type="qcurve"/>
      <point x="355" y="396"/>
      <point x="424" y="365"/>
      <point x="472" y="311"/>
      <point x="493" y="237"/>
    </contour>
    <contour>
      <point x="451" y="194" type="qcurve"/>
      <point x="455" y="229"/>
      <point x="437" y="291"/>
      <point x="398" y="336"/>
      <point x="341" y="362"/>
      <point x="306" y="362" type="qcurve"/>
      <point x="268" y="362"/>
      <point x="199" y="333"/>
      <point x="147" y="282"/>
      <point x="116" y="215"/>
      <point x="116" y="177" type="qcurve"/>
      <point x="116" y="145"/>
      <point x="138" y="91"/>
      <point x="178" y="50"/>
      <point x="232" y="27"/>
      <point x="265" y="27" type="qcurve"/>
      <point x="300" y="27"/>
      <point x="364" y="53"/>
      <point x="414" y="98"/>
      <point x="447" y="159"/>
    </contour>
  </outline>
</glyph>
<glyph name="f" format="1">
  <advance width="287"/>
  <unicode hex="0066"/>
  <outline>
    <contour>
      <point x="44" y="356" type="line"/>
      <point x="48" y="388" type="line"/>
      <point x="115" y="388" type="line"/>
      <point x="131" y="517" type="line"/>
      <point x="138" y="575"/>
      <point x="179" y="664"/>
      <point x="240" y="725"/>
      <point x="317" y="756"/>
      <point x="360" y="758" type="qcurve"/>
      <point x="356" y="727" type="line"/>
      <point x="320" y="726"/>
      <point x="256" y="697"/>
      <point x="206" y="643"/>
      <point x="172" y="567"/>
      <point x="166" y="520" type="qcurve"/>
      <point x="149" y="388" type="line"/>
      <point x="280" y="388" type="line"/>
      <point x="276" y="356" type="line"/>
      <point x="145" y="356" type="line"/>
      <point x="107" y="41" type="line"/>
      <point x="106" y="31" type="line"/>
      <point x="206" y="31" type="line"/>
      <point x="202" y="0" type="line"/>
      <point x="-7" y="0" type="line"/>
      <point x="-3" y="31" type="line"/>
      <point x="71" y="31" type="line"/>
      <point x="111" y="356" type="line"/>
    </contour>
  </outline>
</glyph>
<glyph name="q" format="1">
  <advance width="538"/>
  <unicode hex="0071"/>
  <outline>
    <contour>
      <point x="428" y="387" type="line"/>
      <point x="536" y="387" type="line"/>
      <point x="531" y="356" type="line"/>
      <point x="458" y="356" type="line"/>
      <point x="395" y="-149" type="line"/>
      <point x="395" y="-155" type="line"/>
      <point x="469" y="-155" type="line"/>
      <point x="465" y="-186" type="line"/>
      <point x="357" y="-186" type="line"/>
      <point x="363" y="-134" type="line"/>
      <point x="386" y="47" type="line"/>
      <point x="393" y="100" type="line"/>
      <point x="367" y="55"/>
      <point x="269" y="-7"/>
      <point x="207" y="-7" type="qcurve"/>
      <point x="168" y="-7"/>
      <point x="103" y="21"/>
      <point x="56" y="69"/>
      <point x="31" y="134"/>
      <point x="31" y="172" type="qcurve"/>
      <point x="31" y="219"/>
      <point x="68" y="301"/>
      <point x="130" y="361"/>
      <point x="212" y="396"/>
      <point x="257" y="396" type="qcurve"/>
      <point x="320" y="396"/>
      <point x="401" y="333"/>
      <point x="415" y="288" type="qcurve"/>
    </contour>
    <contour>
      <point x="66" y="177" type="qcurve"/>
      <point x="66" y="145"/>
      <point x="88" y="91"/>
      <point x="127" y="50"/>
      <point x="182" y="27"/>
      <point x="214" y="27" type="qcurve"/>
      <point x="252" y="27"/>
      <point x="321" y="56"/>
      <point x="373" y="107"/>
      <point x="404" y="173"/>
      <point x="404" y="211" type="qcurve"/>
      <point x="404" y="243"/>
      <point x="382" y="298"/>
      <point x="342" y="339"/>
      <point x="288" y="362"/>
      <point x="255" y="362" type="qcurve"/>
      <point x="217" y="362"/>
      <point x="148" y="333"/>
      <point x="96" y="282"/>
      <point x="66" y="215"/>
    </contour>
  </outline>
</glyph>
<glyph name="t" format="1">
  <advance width="260"/>
  <unicode hex="0074"/>
  <outline>
    <contour>
      <point x="133" y="557" type="line"/>
      <point x="167" y="557" type="line"/>
      <point x="146" y="381" type="line"/>
      <point x="268" y="381" type="line"/>
      <point x="264" y="350" type="line"/>
      <point x="141" y="350" type="line"/>
      <point x="105" y="52" type="line"/>
      <point x="102" y="31" type="line"/>
      <point x="195" y="31" type="line"/>
      <point x="192" y="0" type="line"/>
      <point x="64" y="0" type="line"/>
      <point x="70" y="52" type="line"/>
      <point x="107" y="350" type="line"/>
      <point x="22" y="350" type="line"/>
      <point x="26" y="381" type="line"/>
      <point x="111" y="381" type="line"/>
    </contour>
  </outline>
</glyph>
<glyph name="z" format="1">
  <advance width="393"/>
  <unicode hex="007A"/>
  <outline>
    <contour>
      <point x="335" y="99" type="line"/>
      <point x="324" y="9" type="line"/>
      <point x="323" y="0" type="line"/>
      <point x="-9" y="0" type="line"/>
      <point x="289" y="356" type="line"/>
      <point x="109" y="356" type="line"/>
      <point x="77" y="356"/>
      <point x="48" y="379"/>
      <point x="50" y="409" type="qcurve"/>
      <point x="51" y="424" type="line"/>
      <point x="83" y="424" type="line"/>
      <point x="81" y="411" type="line"/>
      <point x="79" y="387"/>
      <point x="112" y="387" type="qcurve"/>
      <point x="355" y="387" type="line"/>
      <point x="59" y="34" type="line"/>
      <point x="297" y="34" type="line"/>
      <point x="305" y="99" type="line"/>
    </contour>
  </outline>
</glyph>
<glyph name="braceright" format="1">
  <advance width="286"/>
  <unicode hex="007D"/>
  <outline>
    <contour>
      <point x="258" y="321" type="qcurve"/>
      <point x="253" y="278" type="line"/>
      <point x="224" y="277"/>
      <point x="187" y="240"/>
      <point x="166" y="190"/>
      <point x="156" y="136"/>
      <point x="154" y="118" type="qcurve"/>
      <point x="136" y="-30" type="line"/>
      <point x="130" y="-77"/>
      <point x="108" y="-125"/>
      <point x="79" y="-147"/>
      <point x="44" y="-149"/>
      <point x="25" y="-149" type="qcurve"/>
      <point x="-20" y="-149" type="line"/>
      <point x="-16" y="-113" type="line"/>
      <point x="37" y="-113" type="line"/>
      <point x="52" y="-113"/>
      <point x="74" y="-102"/>
      <point x="89" y="-77"/>
      <point x="98" y="-35"/>
      <point x="102" y="-4" type="qcurve"/>
      <point x="123" y="165" type="line"/>
      <point x="127" y="198"/>
      <point x="146" y="244"/>
      <point x="170" y="276"/>
      <point x="196" y="294"/>
      <point x="206" y="300" type="qcurve"/>
      <point x="195" y="307"/>
      <point x="174" y="327"/>
      <point x="159" y="363"/>
      <point x="155" y="418"/>
      <point x="160" y="460" type="qcurve"/>
      <point x="177" y="604" type="line"/>
      <point x="185" y="666"/>
      <point x="170" y="713"/>
      <point x="138" y="713" type="qcurve"/>
      <point x="85" y="713" type="line"/>
      <point x="90" y="749" type="line"/>
      <point x="135" y="749" type="line"/>
      <point x="154" y="749"/>
      <point x="188" y="747"/>
      <point x="212" y="726"/>
      <point x="223" y="677"/>
      <point x="217" y="631" type="qcurve"/>
      <point x="199" y="481" type="line"/>
      <point x="196" y="463"/>
      <point x="192" y="409"/>
      <point x="201" y="359"/>
      <point x="229" y="322"/>
    </contour>
  </outline>
</glyph>
<glyph name="currency" format="1">
  <advance width="457"/>
  <unicode hex="00A4"/>
  <outline>
    <contour>
      <point x="100" y="346" type="qcurve"/>
      <point x="100" y="375"/>
      <point x="123" y="425"/>
      <point x="142" y="446" type="qcurve"/>
      <point x="112" y="481" type="line"/>
      <point x="134" y="501" type="line"/>
      <point x="164" y="466" type="line"/>
      <point x="184" y="481"/>
      <point x="231" y="499"/>
      <point x="257" y="499" type="qcurve"/>
      <point x="282" y="499"/>
      <point x="325" y="481"/>
      <point x="340" y="465" type="qcurve"/>
      <point x="380" y="500" type="line"/>
      <point x="397" y="481" type="line"/>
      <point x="358" y="446" type="line"/>
      <point x="378" y="417"/>
      <point x="378" y="374" type="qcurve"/>
      <point x="378" y="345"/>
      <point x="354" y="294"/>
      <point x="334" y="273" type="qcurve"/>
      <point x="367" y="235" type="line"/>
      <point x="345" y="215" type="line"/>
      <point x="311" y="253" type="line"/>
      <point x="272" y="223"/>
      <point x="222" y="223" type="qcurve"/>
      <point x="173" y="223"/>
      <point x="141" y="252" type="qcurve"/>
      <point x="98" y="214" type="line"/>
      <point x="81" y="234" type="line"/>
      <point x="123" y="272" type="line"/>
      <point x="112" y="287"/>
      <point x="100" y="326"/>
    </contour>
    <contour>
      <point x="129" y="350" type="qcurve"/>
      <point x="129" y="308"/>
      <point x="184" y="250"/>
      <point x="226" y="250" type="qcurve"/>
      <point x="250" y="250"/>
      <point x="295" y="269"/>
      <point x="330" y="302"/>
      <point x="350" y="347"/>
      <point x="350" y="372" type="qcurve"/>
      <point x="350" y="414"/>
      <point x="295" y="472"/>
      <point x="253" y="472" type="qcurve"/>
      <point x="229" y="472"/>
      <point x="184" y="453"/>
      <point x="149" y="420"/>
      <point x="129" y="375"/>
    </contour>
  </outline>
</glyph>
<glyph name="section" format="1">
  <advance width="368"/>
  <unicode hex="00A7"/>
  <outline>
    <contour>
      <point x="151" y="153" type="qcurve"/>
      <point x="125" y="207"/>
      <point x="96" y="272"/>
      <point x="83" y="298" type="qcurve"/>
      <point x="74" y="319"/>
      <point x="73" y="367"/>
      <point x="89" y="412"/>
      <point x="119" y="452"/>
      <point x="141" y="465" type="qcurve"/>
      <point x="166" y="479"/>
      <point x="219" y="482"/>
      <point x="242" y="472" type="qcurve"/>
      <point x="230" y="496"/>
      <point x="209" y="544"/>
      <point x="198" y="569" type="qcurve"/>
      <point x="186" y="596"/>
      <point x="176" y="636"/>
      <point x="179" y="666"/>
      <point x="193" y="687"/>
      <point x="203" y="695" type="qcurve"/>
      <point x="217" y="710"/>
      <point x="263" y="733"/>
      <point x="281" y="743" type="qcurve"/>
      <point x="296" y="713" type="line"/>
      <point x="283" y="705"/>
      <point x="258" y="693"/>
      <point x="246" y="686" type="qcurve"/>
      <point x="219" y="671"/>
      <point x="215" y="622"/>
      <point x="238" y="573" type="qcurve"/>
      <point x="239" y="573" type="line"/>
      <point x="256" y="535"/>
      <point x="290" y="460"/>
      <point x="308" y="422" type="qcurve"/>
      <point x="318" y="401"/>
      <point x="318" y="354"/>
      <point x="302" y="309"/>
      <point x="271" y="270"/>
      <point x="249" y="257" type="qcurve"/>
      <point x="223" y="243"/>
      <point x="171" y="239"/>
      <point x="148" y="249" type="qcurve"/>
      <point x="159" y="224"/>
      <point x="182" y="176"/>
      <point x="193" y="151" type="qcurve"/>
      <point x="206" y="124"/>
      <point x="215" y="84"/>
      <point x="212" y="54"/>
      <point x="199" y="33"/>
      <point x="189" y="25" type="qcurve"/>
      <point x="175" y="9"/>
      <point x="129" y="-14"/>
      <point x="111" y="-23" type="qcurve"/>
      <point x="96" y="8" type="line"/>
      <point x="110" y="15"/>
      <point x="134" y="28"/>
      <point x="146" y="35" type="qcurve"/>
      <point x="174" y="50"/>
      <point x="176" y="101"/>
    </contour>
    <contour>
      <point x="114" y="328" type="qcurve"/>
      <point x="120" y="301"/>
      <point x="165" y="272"/>
      <point x="194" y="274" type="qcurve"/>
      <point x="212" y="275"/>
      <point x="245" y="292"/>
      <point x="269" y="319"/>
      <point x="284" y="352"/>
      <point x="284" y="369" type="qcurve"/>
      <point x="284" y="408"/>
      <point x="231" y="452"/>
      <point x="197" y="450" type="qcurve"/>
      <point x="173" y="448"/>
      <point x="136" y="424"/>
      <point x="113" y="389"/>
      <point x="107" y="347"/>
    </contour>
  </outline>
</glyph>
<glyph name="ordfeminine" format="1">
  <advance width="458"/>
  <unicode hex="00AA"/>
  <outline>
    <contour>
      <point x="74" y="430" type="qcurve"/>
      <point x="74" y="463"/>
      <point x="101" y="522"/>
      <point x="146" y="566"/>
      <point x="206" y="592"/>
      <point x="238" y="592" type="qcurve"/>
      <point x="283" y="592"/>
      <point x="343" y="546"/>
      <point x="351" y="514" type="qcurve"/>
      <point x="356" y="551"/>
      <point x="363" y="585" type="qcurve"/>
      <point x="385" y="585" type="line"/>
      <point x="353" y="328" type="line"/>
      <point x="407" y="328" type="line"/>
      <point x="404" y="306" type="line"/>
      <point x="325" y="306" type="line"/>
      <point x="330" y="341" type="line"/>
      <point x="335" y="377" type="line"/>
      <point x="318" y="346"/>
      <point x="248" y="301"/>
      <point x="203" y="301" type="qcurve"/>
      <point x="174" y="301"/>
      <point x="127" y="321"/>
      <point x="93" y="356"/>
      <point x="74" y="403"/>
    </contour>
    <contour>
      <point x="99" y="434" type="qcurve"/>
      <point x="99" y="388"/>
      <point x="159" y="325"/>
      <point x="206" y="325" type="qcurve"/>
      <point x="233" y="325"/>
      <point x="283" y="346"/>
      <point x="321" y="383"/>
      <point x="343" y="431"/>
      <point x="343" y="458" type="qcurve"/>
      <point x="343" y="504"/>
      <point x="283" y="567"/>
      <point x="235" y="567" type="qcurve"/>
      <point x="208" y="567"/>
      <point x="158" y="546"/>
      <point x="121" y="510"/>
      <point x="99" y="461"/>
    </contour>
  </outline>
</glyph>
<glyph name="guillemotleft" format="1">
  <advance width="456"/>
  <unicode hex="00AB"/>
  <outline>
    <contour>
      <point x="366" y="69" type="line"/>
      <point x="215" y="240" type="line"/>
      <point x="234" y="256"/>
      <point x="285" y="301"/>
      <point x="338" y="348"/>
      <point x="389" y="393"/>
      <point x="408" y="410" type="qcurve"/>
      <point x="403" y="368" type="line"/>
      <point x="371" y="339"/>
      <point x="297" y="269"/>
      <point x="265" y="240" type="qcurve"/>
      <point x="290" y="211"/>
      <point x="346" y="140"/>
      <point x="371" y="111" type="qcurve"/>
    </contour>
    <contour>
      <point x="194" y="69" type="line"/>
      <point x="44" y="240" type="line"/>
      <point x="63" y="256"/>
      <point x="114" y="301"/>
      <point x="166" y="348"/>
      <point x="217" y="393"/>
      <point x="236" y="410" type="qcurve"/>
      <point x="231" y="368" type="line"/>
      <point x="199" y="339"/>
      <point x="125" y="269"/>
      <point x="93" y="240" type="qcurve"/>
      <point x="118" y="211"/>
      <point x="174" y="140"/>
      <point x="199" y="111" type="qcurve"/>
    </contour>
  </outline>
</glyph>
<glyph name="acute" format="1">
  <advance width="237"/>
  <unicode hex="00B4"/>
  <outline>
    <contour>
      <point x="160" y="481" type="line"/>
      <point x="266" y="614" type="line"/>
      <point x="304" y="614" type="line"/>
      <point x="189" y="481" type="line"/>
    </contour>
  </outline>
</glyph>
<glyph name="mu" format="1">
  <advance width="547"/>
  <unicode hex="00B5"/>
  <outline>
    <contour>
      <point x="405" y="336" type="line"/>
      <point x="408" y="356" type="line"/>
      <point x="331" y="356" type="line"/>
      <point x="335" y="387" type="line"/>
      <point x="446" y="387" type="line"/>
      <point x="440" y="335" type="line"/>
      <point x="439" y="335" type="line"/>
      <point x="403" y="31" type="line"/>
      <point x="476" y="31" type="line"/>
      <point x="473" y="0" type="line"/>
      <point x="371" y="0" type="line"/>
      <point x="380" y="101" type="line"/>
      <point x="353" y="52"/>
      <point x="258" y="-8"/>
      <point x="200" y="-8" type="qcurve"/>
      <point x="145" y="-8"/>
      <point x="115" y="24" type="qcurve"/>
      <point x="87" y="-201" type="line"/>
      <point x="53" y="-201" type="line"/>
      <point x="90" y="101" type="line"/>
      <point x="90" y="103"/>
      <point x="91" y="106"/>
      <point x="91" y="108" type="qcurve"/>
      <point x="94" y="130" type="line"/>
      <point x="122" y="356" type="line"/>
      <point x="48" y="356" type="line"/>
      <point x="52" y="387" type="line"/>
      <point x="160" y="387" type="line"/>
      <point x="153" y="330" type="line"/>
      <point x="126" y="114" type="line"/>
      <point x="124" y="79"/>
      <point x="165" y="29"/>
      <point x="208" y="26" type="qcurve"/>
      <point x="241" y="26"/>
      <point x="301" y="48"/>
      <point x="350" y="86"/>
      <point x="382" y="139"/>
      <point x="386" y="171" type="qcurve"/>
      <point x="406" y="336" type="line"/>
    </contour>
  </outline>
</glyph>
<glyph name="guillemotright" format="1">
  <advance width="457"/>
  <unicode hex="00BB"/>
  <outline>
    <contour>
      <point x="45" y="111" type="line"/>
      <point x="77" y="140"/>
      <point x="151" y="211"/>
      <point x="183" y="240" type="qcurve"/>
      <point x="158" y="269"/>
      <point x="102" y="339"/>
      <point x="77" y="368" type="qcurve"/>
      <point x="82" y="410" type="line"/>
      <point x="97" y="393"/>
      <point x="137" y="348"/>
      <point x="178" y="301"/>
      <point x="218" y="256"/>
      <point x="233" y="240" type="qcurve"/>
      <point x="40" y="69" type="line"/>
    </contour>
    <contour>
      <point x="217" y="111" type="line"/>
      <point x="354" y="240" type="line"/>
      <point x="330" y="269"/>
      <point x="273" y="339"/>
      <point x="249" y="368" type="qcurve"/>
      <point x="254" y="410" type="line"/>
      <point x="269" y="393"/>
      <point x="308" y="348"/>
      <point x="350" y="301"/>
      <point x="389" y="256"/>
      <point x="404" y="240" type="qcurve"/>
      <point x="212" y="69" type="line"/>
    </contour>
  </outline>
</glyph>
<glyph name="onequarter" format="1">
  <advance width="792"/>
  <unicode hex="00BC"/>
  <outline>
    <contour>
      <point x="711" y="26" type="line"/>
      <point x="708" y="0" type="line"/>
      <point x="559" y="0" type="line"/>
      <point x="561" y="26" type="line"/>
      <point x="621" y="26" type="line"/>
      <point x="635" y="133" type="line"/>
      <point x="384" y="133" type="line"/>
      <point x="463" y="223"/>
      <point x="626" y="403"/>
      <point x="705" y="492" type="qcurve"/>
      <point x="665" y="160" type="line"/>
      <point x="737" y="160" type="line"/>
      <point x="734" y="133" type="line"/>
      <point x="662" y="133" type="line"/>
      <point x="649" y="26" type="line"/>
    </contour>
    <contour>
      <point x="156" y="-19" type="line"/>
      <point x="529" y="738" type="line"/>
      <point x="565" y="738" type="line"/>
      <point x="192" y="-19" type="line"/>
    </contour>
    <contour>
      <point x="669" y="417" type="line"/>
      <point x="441" y="160" type="line"/>
      <point x="638" y="160" type="line"/>
    </contour>
    <contour>
      <point x="89" y="672" type="line"/>
      <point x="92" y="697" type="line"/>
      <point x="188" y="697" type="line"/>
      <point x="132" y="234" type="line"/>
      <point x="105" y="234" type="line"/>
      <point x="159" y="672" type="line"/>
    </contour>
  </outline>
</glyph>
<glyph name="questiondown" format="1">
  <advance width="480"/>
  <unicode hex="00BF"/>
  <outline>
    <contour>
      <point x="373" y="-45" type="qcurve"/>
      <point x="381" y="-48"/>
      <point x="396" y="-53"/>
      <point x="403" y="-56" type="qcurve"/>
      <point x="391" y="-83"/>
      <point x="352" y="-133"/>
      <point x="299" y="-172"/>
      <point x="234" y="-196"/>
      <point x="196" y="-196" type="qcurve"/>
      <point x="157" y="-196"/>
      <point x="93" y="-169"/>
      <point x="47" y="-121"/>
      <point x="22" y="-57"/>
      <point x="22" y="-20" type="qcurve"/>
      <point x="22" y="42"/>
      <point x="86" y="132"/>
      <point x="142" y="169" type="qcurve"/>
      <point x="161" y="182"/>
      <point x="197" y="202"/>
      <point x="226" y="227"/>
      <point x="246" y="265"/>
      <point x="250" y="296" type="qcurve"/>
      <point x="260" y="374" type="line"/>
      <point x="296" y="374" type="line"/>
      <point x="284" y="277" type="line"/>
      <point x="280" y="246"/>
      <point x="254" y="207"/>
      <point x="214" y="178"/>
      <point x="165" y="150"/>
      <point x="139" y="129" type="qcurve"/>
      <point x="97" y="97"/>
      <point x="59" y="24"/>
      <point x="59" y="-18" type="qcurve"/>
      <point x="59" y="-49"/>
      <point x="80" y="-101"/>
      <point x="117" y="-139"/>
      <point x="169" y="-160"/>
      <point x="200" y="-160" type="qcurve"/>
      <point x="259" y="-160"/>
      <point x="350" y="-99"/>
    </contour>
    <contour>
      <point x="297" y="522" type="qcurve"/>
      <point x="307" y="522"/>
      <point x="323" y="506"/>
      <point x="323" y="495" type="qcurve"/>
      <point x="323" y="480"/>
      <point x="301" y="461"/>
      <point x="289" y="461" type="qcurve"/>
      <point x="279" y="461"/>
      <point x="262" y="476"/>
      <point x="262" y="489" type="qcurve"/>
      <point x="262" y="503"/>
      <point x="284" y="522"/>
    </contour>
  </outline>
</glyph>
<glyph name="Adieresis" format="1">
  <advance width="726"/>
  <unicode hex="00C4"/>
  <outline>
    <contour>
      <point x="-26" y="37" type="line"/>
      <point x="-31" y="0" type="line"/>
      <point x="170" y="0" type="line"/>
      <point x="175" y="37" type="line"/>
      <point x="91" y="37" type="line"/>
      <point x="222" y="287" type="line"/>
      <point x="508" y="287" type="line"/>
      <point x="577" y="37" type="line"/>
      <point x="497" y="37" type="line"/>
      <point x="492" y="0" type="line"/>
      <point x="693" y="0" type="line"/>
      <point x="698" y="37" type="line"/>
      <point x="618" y="37" type="line"/>
      <point x="421" y="740" type="line"/>
      <point x="49" y="37" type="line"/>
    </contour>
    <contour>
      <point x="397" y="623" type="line"/>
      <point x="399" y="629"/>
      <point x="402" y="634" type="qcurve"/>
      <point x="404" y="639"/>
      <point x="408" y="648"/>
      <point x="410" y="652" type="qcurve"/>
      <point x="410" y="648"/>
      <point x="412" y="639"/>
      <point x="413" y="634" type="qcurve"/>
      <point x="414" y="629"/>
      <point x="416" y="623" type="qcurve"/>
      <point x="498" y="323" type="line"/>
      <point x="240" y="323" type="line"/>
    </contour>
    <contour>
      <point x="311" y="798" type="qcurve"/>
      <point x="311" y="812"/>
      <point x="332" y="832"/>
      <point x="346" y="832" type="qcurve"/>
      <point x="357" y="832"/>
      <point x="372" y="816"/>
      <point x="372" y="804" type="qcurve"/>
      <point x="372" y="790"/>
      <point x="351" y="771"/>
      <point x="338" y="771" type="qcurve"/>
      <point x="327" y="771"/>
      <point x="311" y="787"/>
    </contour>
    <contour>
      <point x="483" y="798" type="qcurve"/>
      <point x="483" y="812"/>
      <point x="504" y="832"/>
      <point x="518" y="832" type="qcurve"/>
      <point x="529" y="832"/>
      <point x="544" y="816"/>
      <point x="544" y="804" type="qcurve"/>
      <point x="544" y="790"/>
      <point x="523" y="771"/>
      <point x="510" y="771" type="qcurve"/>
      <point x="499" y="771"/>
      <point x="483" y="787"/>
    </contour>
  </outline>
</glyph>
<glyph name="Eacute" format="1">
  <advance width="638"/>
  <unicode hex="00C9"/>
  <outline>
    <contour>
      <point x="572" y="596" type="line"/>
      <point x="581" y="669" type="line"/>
      <point x="229" y="669" type="line"/>
      <point x="193" y="375" type="line"/>
      <point x="545" y="375" type="line"/>
      <point x="540" y="337" type="line"/>
      <point x="188" y="337" type="line"/>
      <point x="152" y="39" type="line"/>
      <point x="518" y="39" type="line"/>
      <point x="527" y="114" type="line"/>
      <point x="566" y="114" type="line"/>
      <point x="557" y="39" type="line"/>
      <point x="554" y="16" type="line"/>
      <point x="552" y="0" type="line"/>
      <point x="29" y="0" type="line"/>
      <point x="34" y="37" type="line"/>
      <point x="110" y="37" type="line"/>
      <point x="188" y="670" type="line"/>
      <point x="111" y="670" type="line"/>
      <point x="116" y="707" type="line"/>
      <point x="625" y="707" type="line"/>
      <point x="623" y="690" type="line"/>
      <point x="611" y="596" type="line"/>
    </contour>
    <contour>
      <point x="361" y="746" type="line"/>
      <point x="467" y="879" type="line"/>
      <point x="505" y="879" type="line"/>
      <point x="390" y="746" type="line"/>
    </contour>
  </outline>
</glyph>
<glyph name="Otilde" format="1">
  <advance width="834"/>
  <unicode hex="00D5"/>
  <outline>
    <contour>
      <point x="65" y="353" type="qcurve"/>
      <point x="74" y="428"/>
      <point x="147" y="559"/>
      <point x="257" y="658"/>
      <point x="395" y="715"/>
      <point x="470" y="715" type="qcurve"/>
      <point x="539" y="715"/>
      <point x="657" y="664"/>
      <point x="743" y="576"/>
      <point x="791" y="457"/>
      <point x="791" y="389" type="qcurve"/>
      <point x="791" y="308"/>
      <point x="723" y="164"/>
      <point x="610" y="55"/>
      <point x="462" y="-8"/>
      <point x="381" y="-8" type="qcurve"/>
      <point x="306" y="-8"/>
      <point x="182" y="49"/>
      <point x="97" y="147"/>
      <point x="56" y="278"/>
    </contour>
    <contour>
      <point x="106" y="352" type="qcurve"/>
      <point x="98" y="286"/>
      <point x="134" y="169"/>
      <point x="210" y="82"/>
      <point x="319" y="31"/>
      <point x="385" y="31" type="qcurve"/>
      <point x="456" y="31"/>
      <point x="588" y="87"/>
      <point x="689" y="184"/>
      <point x="749" y="313"/>
      <point x="749" y="385" type="qcurve"/>
      <point x="749" y="445"/>
      <point x="706" y="551"/>
      <point x="630" y="630"/>
      <point x="526" y="675"/>
      <point x="465" y="675" type="qcurve"/>
      <point x="399" y="675"/>
      <point x="276" y="624"/>
      <point x="179" y="536"/>
      <point x="114" y="419"/>
    </contour>
    <contour>
      <point x="477" y="790" type="qcurve"/>
      <point x="463" y="807"/>
      <point x="441" y="819"/>
      <point x="427" y="819" type="qcurve"/>
      <point x="419" y="819"/>
      <point x="399" y="815"/>
      <point x="379" y="803"/>
      <point x="362" y="782"/>
      <point x="358" y="766" type="qcurve"/>
      <point x="335" y="769" type="line"/>
      <point x="338" y="788"/>
      <point x="358" y="816"/>
      <point x="384" y="834"/>
      <point x="415" y="843"/>
      <point x="429" y="843" type="qcurve"/>
      <point x="450" y="843"/>
      <point x="482" y="823"/>
      <point x="496" y="806" type="qcurve"/>
      <point x="510" y="789"/>
      <point x="533" y="777"/>
      <point x="547" y="777" type="qcurve"/>
      <point x="554" y="777"/>
      <point x="575" y="781"/>
      <point x="595" y="793"/>
      <point x="611" y="814"/>
      <point x="615" y="830" type="qcurve"/>
      <point x="638" y="827" type="line"/>
      <point x="630" y="789"/>
      <point x="573" y="754"/>
      <point x="544" y="754" type="qcurve"/>
      <point x="523" y="754"/>
      <point x="491" y="773"/>
    </contour>
  </outline>
</glyph>
<glyph name="Oslash" format="1">
  <advance width="833"/>
  <unicode hex="00D8"/>
  <outline>
    <contour>
      <point x="64" y="353" type="qcurve"/>
      <point x="73" y="428"/>
      <point x="146" y="559"/>
      <point x="256" y="658"/>
      <point x="394" y="715"/>
      <point x="469" y="715" type="qcurve"/>
      <point x="529" y="715"/>
      <point x="630" y="678"/>
      <point x="672" y="644" type="qcurve"/>
      <point x="745" y="721" type="line"/>
      <point x="763" y="701" type="line"/>
      <point x="748" y="685"/>
      <point x="711" y="647"/>
      <point x="691" y="627" type="qcurve"/>
      <point x="738" y="582"/>
      <point x="790" y="460"/>
      <point x="790" y="389" type="qcurve"/>
      <point x="790" y="308"/>
      <point x="722" y="164"/>
      <point x="609" y="55"/>
      <point x="461" y="-8"/>
      <point x="380" y="-8" type="qcurve"/>
      <point x="314" y="-8"/>
      <point x="201" y="36"/>
      <point x="159" y="76" type="qcurve"/>
      <point x="82" y="-5" type="line"/>
      <point x="64" y="14" type="line"/>
      <point x="141" y="94" type="line"/>
      <point x="96" y="144"/>
      <point x="55" y="276"/>
    </contour>
    <contour>
      <point x="189" y="106" type="qcurve"/>
      <point x="226" y="71"/>
      <point x="325" y="31"/>
      <point x="384" y="31" type="qcurve"/>
      <point x="455" y="31"/>
      <point x="587" y="87"/>
      <point x="688" y="184"/>
      <point x="748" y="313"/>
      <point x="748" y="385" type="qcurve"/>
      <point x="748" y="448"/>
      <point x="702" y="556"/>
      <point x="661" y="596" type="qcurve"/>
      <point x="609" y="542"/>
      <point x="488" y="416"/>
      <point x="363" y="287"/>
      <point x="241" y="161"/>
    </contour>
    <contour>
      <point x="105" y="352" type="qcurve"/>
      <point x="97" y="285"/>
      <point x="133" y="169"/>
      <point x="171" y="125" type="qcurve"/>
      <point x="223" y="179"/>
      <point x="344" y="305"/>
      <point x="469" y="434"/>
      <point x="590" y="559"/>
      <point x="642" y="613" type="qcurve"/>
      <point x="606" y="642"/>
      <point x="516" y="675"/>
      <point x="464" y="675" type="qcurve"/>
      <point x="398" y="675"/>
      <point x="275" y="624"/>
      <point x="178" y="536"/>
      <point x="113" y="419"/>
    </contour>
  </outline>
</glyph>
<glyph name="acircumflex" format="1">
  <advance width="540"/>
  <unicode hex="00E2"/>
  <outline>
    <contour>
      <point x="417" y="31" type="line"/>
      <point x="491" y="31" type="line"/>
      <point x="487" y="0" type="line"/>
      <point x="378" y="0" type="line"/>
      <point x="385" y="48" type="line"/>
      <point x="391" y="99" type="line"/>
      <point x="368" y="55"/>
      <point x="271" y="-7"/>
      <point x="208" y="-7" type="qcurve"/>
      <point x="169" y="-7"/>
      <point x="103" y="21"/>
      <point x="56" y="69"/>
      <point x="30" y="134"/>
      <point x="30" y="172" type="qcurve"/>
      <point x="30" y="218"/>
      <point x="67" y="299"/>
      <point x="130" y="360"/>
      <point x="212" y="396"/>
      <point x="257" y="396" type="qcurve"/>
      <point x="288" y="396"/>
      <point x="340" y="379"/>
      <point x="380" y="349"/>
      <point x="408" y="310"/>
      <point x="414" y="288" type="qcurve"/>
      <point x="417" y="313"/>
      <point x="425" y="363"/>
      <point x="430" y="387" type="qcurve"/>
      <point x="461" y="387" type="line"/>
    </contour>
    <contour>
      <point x="64" y="177" type="qcurve"/>
      <point x="64" y="145"/>
      <point x="86" y="91"/>
      <point x="125" y="50"/>
      <point x="180" y="27"/>
      <point x="212" y="27" type="qcurve"/>
      <point x="250" y="27"/>
      <point x="319" y="56"/>
      <point x="371" y="107"/>
      <point x="402" y="173"/>
      <point x="402" y="211" type="qcurve"/>
      <point x="402" y="243"/>
      <point x="380" y="298"/>
      <point x="340" y="339"/>
      <point x="286" y="362"/>
      <point x="253" y="362" type="qcurve"/>
      <point x="215" y="362"/>
      <point x="146" y="333"/>
      <point x="94" y="282"/>
      <point x="64" y="215"/>
    </contour>
    <contour>
      <point x="293" y="609" type="qcurve"/>
      <point x="320" y="575"/>
      <point x="342" y="549" type="qcurve"/>
      <point x="361" y="526"/>
      <point x="395" y="486"/>
      <point x="398" y="481" type="qcurve"/>
      <point x="368" y="481" type="line"/>
      <point x="287" y="563" type="line"/>
      <point x="186" y="481" type="line"/>
      <point x="157" y="481" type="line"/>
      <point x="161" y="485"/>
      <point x="204" y="526"/>
      <point x="229" y="549" type="qcurve"/>
      <point x="258" y="576"/>
    </contour>
  </outline>
</glyph>
<glyph name="ecircumflex" format="1">
  <advance width="441"/>
  <unicode hex="00EA"/>
  <outline>
    <contour>
      <point x="357" y="47" type="line"/>
      <point x="327" y="22"/>
      <point x="251" y="-7"/>
      <point x="210" y="-7" type="qcurve"/>
      <point x="170" y="-7"/>
      <point x="104" y="21"/>
      <point x="56" y="69"/>
      <point x="30" y="135"/>
      <point x="30" y="173" type="qcurve"/>
      <point x="30" y="219"/>
      <point x="68" y="300"/>
      <point x="131" y="361"/>
      <point x="213" y="397"/>
      <point x="258" y="397" type="qcurve"/>
      <point x="323" y="397"/>
      <point x="404" y="322"/>
      <point x="419" y="264" type="qcurve"/>
      <point x="381" y="250"/>
      <point x="293" y="216"/>
      <point x="201" y="180"/>
      <point x="110" y="145"/>
      <point x="70" y="130" type="qcurve"/>
      <point x="84" y="84"/>
      <point x="159" y="27"/>
      <point x="213" y="27" type="qcurve"/>
      <point x="246" y="27"/>
      <point x="310" y="51"/>
      <point x="334" y="72" type="qcurve"/>
    </contour>
    <contour>
      <point x="376" y="274" type="qcurve"/>
      <point x="362" y="314"/>
      <point x="300" y="362"/>
      <point x="254" y="362" type="qcurve"/>
      <point x="217" y="362"/>
      <point x="149" y="333"/>
      <point x="97" y="282"/>
      <point x="66" y="215"/>
      <point x="65" y="178" type="qcurve"/>
      <point x="65" y="172"/>
      <point x="65" y="159"/>
      <point x="67" y="154" type="qcurve"/>
      <point x="102" y="168"/>
      <point x="182" y="199"/>
      <point x="263" y="230"/>
      <point x="341" y="260"/>
    </contour>
    <contour>
      <point x="283" y="609" type="qcurve"/>
      <point x="310" y="575"/>
      <point x="332" y="549" type="qcurve"/>
      <point x="351" y="526"/>
      <point x="385" y="486"/>
      <point x="388" y="481" type="qcurve"/>
      <point x="358" y="481" type="line"/>
      <point x="277" y="563" type="line"/>
      <point x="176" y="481" type="line"/>
      <point x="147" y="481" type="line"/>
      <point x="151" y="485"/>
      <point x="194" y="526"/>
      <point x="219" y="549" type="qcurve"/>
      <point x="248" y="576"/>
    </contour>
  </outline>
</glyph>
<glyph name="igrave" format="1">
  <advance width="233"/>
  <unicode hex="00EC"/>
  <outline>
    <contour>
      <point x="180" y="0" type="line"/>
      <point x="-5" y="0" type="line"/>
      <point x="-1" y="31" type="line"/>
      <point x="73" y="31" type="line"/>
      <point x="113" y="356" type="line"/>
      <point x="39" y="356" type="line"/>
      <point x="43" y="387" type="line"/>
      <point x="151" y="387" type="line"/>
      <point x="147" y="356" type="line"/>
      <point x="109" y="40" type="line"/>
      <point x="108" y="31" type="line"/>
      <point x="184" y="31" type="line"/>
    </contour>
    <contour>
      <point x="121" y="614" type="line"/>
      <point x="196" y="481" type="line"/>
      <point x="166" y="481" type="line"/>
      <point x="145" y="514"/>
      <point x="104" y="581"/>
      <point x="84" y="614" type="qcurve"/>
    </contour>
  </outline>
</glyph>
<glyph name="idieresis" format="1">
  <advance width="233"/>
  <unicode hex="00EF"/>
  <outline>
    <contour>
      <point x="147" y="356" type="line"/>
      <point x="109" y="40" type="line"/>
      <point x="108" y="31" type="line"/>
      <point x="184" y="31" type="line"/>
      <point x="180" y="0" type="line"/>
      <point x="-5" y="0" type="line"/>
      <point x="-1" y="31" type="line"/>
      <point x="73" y="31" type="line"/>
      <point x="113" y="356" type="line"/>
      <point x="39" y="356" type="line"/>
      <point x="43" y="387" type="line"/>
      <point x="151" y="387" type="line"/>
    </contour>
    <contour>
      <point x="32" y="505" type="qcurve"/>
      <point x="32" y="519"/>
      <point x="53" y="539"/>
      <point x="67" y="539" type="qcurve"/>
      <point x="78" y="539"/>
      <point x="93" y="523"/>
      <point x="93" y="511" type="qcurve"/>
      <point x="93" y="497"/>
      <point x="72" y="478"/>
      <point x="59" y="478" type="qcurve"/>
      <point x="48" y="478"/>
      <point x="32" y="494"/>
    </contour>
    <contour>
      <point x="204" y="505" type="qcurve"/>
      <point x="204" y="519"/>
      <point x="225" y="539"/>
      <point x="239" y="539" type="qcurve"/>
      <point x="250" y="539"/>
      <point x="265" y="523"/>
      <point x="265" y="511" type="qcurve"/>
      <point x="265" y="497"/>
      <point x="244" y="478"/>
      <point x="231" y="478" type="qcurve"/>
      <point x="220" y="478"/>
      <point x="204" y="494"/>
    </contour>
  </outline>
</glyph>
<glyph name="otilde" format="1">
  <advance width="487"/>
  <unicode hex="00F5"/>
  <outline>
    <contour>
      <point x="31" y="194" type="qcurve"/>
      <point x="36" y="236"/>
      <point x="77" y="310"/>
      <point x="138" y="365"/>
      <point x="216" y="397"/>
      <point x="259" y="397" type="qcurve"/>
      <point x="298" y="397"/>
      <point x="364" y="369"/>
      <point x="412" y="320"/>
      <point x="438" y="254"/>
      <point x="438" y="216" type="qcurve"/>
      <point x="438" y="169"/>
      <point x="401" y="88"/>
      <point x="338" y="28"/>
      <point x="254" y="-7"/>
      <point x="208" y="-7" type="qcurve"/>
      <point x="166" y="-7"/>
      <point x="96" y="23"/>
      <point x="48" y="77"/>
      <point x="26" y="151"/>
    </contour>
    <contour>
      <point x="66" y="194" type="qcurve"/>
      <point x="61" y="159"/>
      <point x="80" y="98"/>
      <point x="119" y="53"/>
      <point x="177" y="27"/>
      <point x="212" y="27" type="qcurve"/>
      <point x="250" y="27"/>
      <point x="319" y="56"/>
      <point x="371" y="106"/>
      <point x="402" y="173"/>
      <point x="402" y="211" type="qcurve"/>
      <point x="402" y="243"/>
      <point x="380" y="298"/>
      <point x="340" y="339"/>
      <point x="285" y="362"/>
      <point x="253" y="362" type="qcurve"/>
      <point x="218" y="362"/>
      <point x="154" y="336"/>
      <point x="103" y="290"/>
      <point x="70" y="229"/>
    </contour>
    <contour>
      <point x="263" y="492" type="qcurve"/>
      <point x="249" y="509"/>
      <point x="227" y="521"/>
      <point x="213" y="521" type="qcurve"/>
      <point x="205" y="521"/>
      <point x="185" y="517"/>
      <point x="165" y="505"/>
      <point x="148" y="484"/>
      <point x="144" y="468" type="qcurve"/>
      <point x="121" y="471" type="line"/>
      <point x="124" y="490"/>
      <point x="144" y="518"/>
      <point x="170" y="536"/>
      <point x="201" y="545"/>
      <point x="215" y="545" type="qcurve"/>
      <point x="236" y="545"/>
      <point x="268" y="525"/>
      <point x="282" y="508" type="qcurve"/>
      <point x="296" y="491"/>
      <point x="319" y="479"/>
      <point x="333" y="479" type="qcurve"/>
      <point x="340" y="479"/>
      <point x="361" y="483"/>
      <point x="381" y="495"/>
      <point x="397" y="516"/>
      <point x="401" y="532" type="qcurve"/>
      <point x="424" y="529" type="line"/>
      <point x="416" y="491"/>
      <point x="359" y="456"/>
      <point x="330" y="456" type="qcurve"/>
      <point x="309" y="456"/>
      <point x="277" y="475"/>
    </contour>
  </outline>
</glyph>
<glyph name="ugrave" format="1">
  <advance width="505"/>
  <unicode hex="00F9"/>
  <outline>
    <contour>
      <point x="384" y="336" type="line"/>
      <point x="387" y="356" type="line"/>
      <point x="310" y="356" type="line"/>
      <point x="314" y="387" type="line"/>
      <point x="425" y="387" type="line"/>
      <point x="419" y="335" type="line"/>
      <point x="418" y="335" type="line"/>
      <point x="382" y="31" type="line"/>
      <point x="455" y="31" type="line"/>
      <point x="452" y="0" type="line"/>
      <point x="350" y="0" type="line"/>
      <point x="359" y="101" type="line"/>
      <point x="332" y="52"/>
      <point x="237" y="-8"/>
      <point x="179" y="-8" type="qcurve"/>
      <point x="123" y="-8"/>
      <point x="65" y="57"/>
      <point x="70" y="108" type="qcurve"/>
      <point x="101" y="356" type="line"/>
      <point x="27" y="356" type="line"/>
      <point x="31" y="387" type="line"/>
      <point x="139" y="387" type="line"/>
      <point x="132" y="330" type="line"/>
      <point x="105" y="114" type="line"/>
      <point x="103" y="79"/>
      <point x="144" y="29"/>
      <point x="187" y="26" type="qcurve"/>
      <point x="220" y="26"/>
      <point x="280" y="48"/>
      <point x="329" y="86"/>
      <point x="361" y="139"/>
      <point x="365" y="171" type="qcurve"/>
      <point x="385" y="336" type="line"/>
    </contour>
    <contour>
      <point x="229" y="614" type="line"/>
      <point x="304" y="481" type="line"/>
      <point x="274" y="481" type="line"/>
      <point x="253" y="514"/>
      <point x="212" y="581"/>
      <point x="192" y="614" type="qcurve"/>
    </contour>
  </outline>
</glyph>
<glyph name="ydieresis" format="1">
  <advance width="492"/>
  <unicode hex="00FF"/>
  <outline>
    <contour>
      <point x="39" y="-155" type="line"/>
      <point x="107" y="-155" type="line"/>
      <point x="117" y="-136"/>
      <point x="145" y="-87"/>
      <point x="171" y="-40"/>
      <point x="192" y="-5"/>
      <point x="195" y="0" type="qcurve"/>
      <point x="193" y="5"/>
      <point x="178" y="49"/>
      <point x="157" y="114"/>
      <point x="131" y="191"/>
      <point x="106" y="267"/>
      <point x="83" y="335"/>
      <point x="76" y="357" type="qcurve"/>
      <point x="18" y="357" type="line"/>
      <point x="22" y="388" type="line"/>
      <point x="183" y="388" type="line"/>
      <point x="179" y="357" type="line"/>
      <point x="114" y="357" type="line"/>
      <point x="121" y="335"/>
      <point x="143" y="270"/>
      <point x="165" y="200"/>
      <point x="188" y="129"/>
      <point x="206" y="73"/>
      <point x="217" y="36"/>
      <point x="217" y="35" type="qcurve"/>
      <point x="217" y="36"/>
      <point x="237" y="72"/>
      <point x="268" y="128"/>
      <point x="308" y="198"/>
      <point x="348" y="269"/>
      <point x="385" y="333"/>
      <point x="398" y="356" type="qcurve"/>
      <point x="337" y="356" type="line"/>
      <point x="341" y="388" type="line"/>
      <point x="501" y="388" type="line"/>
      <point x="497" y="356" type="line"/>
      <point x="436" y="356" type="line"/>
      <point x="141" y="-155" type="line"/>
      <point x="212" y="-155" type="line"/>
      <point x="209" y="-186" type="line"/>
      <point x="36" y="-186" type="line"/>
    </contour>
    <contour>
      <point x="331" y="505" type="qcurve"/>
      <point x="331" y="519"/>
      <point x="352" y="539"/>
      <point x="366" y="539" type="qcurve"/>
      <point x="377" y="539"/>
      <point x="392" y="523"/>
      <point x="392" y="511" type="qcurve"/>
      <point x="392" y="497"/>
      <point x="371" y="478"/>
      <point x="358" y="478" type="qcurve"/>
      <point x="347" y="478"/>
      <point x="331" y="494"/>
    </contour>
    <contour>
      <point x="159" y="505" type="qcurve"/>
      <point x="159" y="519"/>
      <point x="180" y="539"/>
      <point x="194" y="539" type="qcurve"/>
      <point x="205" y="539"/>
      <point x="220" y="523"/>
      <point x="220" y="511" type="qcurve"/>
      <point x="220" y="497"/>
      <point x="199" y="478"/>
      <point x="186" y="478" type="qcurve"/>
      <point x="175" y="478"/>
      <point x="159" y="494"/>
    </contour>
  </outline>
</glyph>
<glyph name="Cdotaccent" format="1">
  <advance width="655"/>
  <unicode hex="010A"/>
  <outline>
    <contour>
      <point x="603" y="572" type="line"/>
      <point x="611" y="643" type="line"/>
      <point x="581" y="660"/>
      <point x="508" y="676"/>
      <point x="470" y="676" type="qcurve"/>
      <point x="398" y="676"/>
      <point x="265" y="619"/>
      <point x="165" y="521"/>
      <point x="105" y="390"/>
      <point x="105" y="317" type="qcurve"/>
      <point x="105" y="260"/>
      <point x="143" y="157"/>
      <point x="215" y="80"/>
      <point x="319" y="34"/>
      <point x="384" y="34" type="qcurve"/>
      <point x="439" y="34"/>
      <point x="535" y="63"/>
      <point x="567" y="82" type="qcurve"/>
      <point x="583" y="45" type="line"/>
      <point x="544" y="23"/>
      <point x="441" y="-8"/>
      <point x="380" y="-8" type="qcurve"/>
      <point x="306" y="-8"/>
      <point x="188" y="42"/>
      <point x="106" y="129"/>
      <point x="63" y="245"/>
      <point x="63" y="310" type="qcurve"/>
      <point x="63" y="395"/>
      <point x="131" y="542"/>
      <point x="244" y="652"/>
      <point x="392" y="715"/>
      <point x="472" y="715" type="qcurve"/>
      <point x="526" y="715"/>
      <point x="621" y="687"/>
      <point x="653" y="665" type="qcurve"/>
      <point x="642" y="572" type="line"/>
    </contour>
    <contour>
      <point x="445" y="774" type="qcurve"/>
      <point x="445" y="788"/>
      <point x="467" y="808"/>
      <point x="480" y="808" type="qcurve"/>
      <point x="491" y="808"/>
      <point x="506" y="792"/>
      <point x="506" y="780" type="qcurve"/>
      <point x="506" y="766"/>
      <point x="485" y="747"/>
      <point x="472" y="747" type="qcurve"/>
      <point x="461" y="747"/>
      <point x="445" y="763"/>
    </contour>
  </outline>
</glyph>
<glyph name="eogonek" format="1">
  <advance width="441"/>
  <unicode hex="0119"/>
  <outline>
    <contour>
      <point x="357" y="47" type="line"/>
      <point x="329" y="24"/>
      <point x="261" y="-4"/>
      <point x="224" y="-6" type="qcurve"/>
      <point x="222" y="-22" type="line"/>
      <point x="220" y="-42"/>
      <point x="190" y="-63"/>
      <point x="156" y="-85"/>
      <point x="128" y="-115"/>
      <point x="128" y="-144" type="qcurve"/>
      <point x="128" y="-170"/>
      <point x="159" y="-203"/>
      <point x="185" y="-203" type="qcurve"/>
      <point x="208" y="-203"/>
      <point x="244" y="-178"/>
      <point x="252" y="-158" type="qcurve"/>
      <point x="258" y="-161"/>
      <point x="270" y="-167"/>
      <point x="276" y="-169" type="qcurve"/>
      <point x="261" y="-201"/>
      <point x="208" y="-233"/>
      <point x="179" y="-233" type="qcurve"/>
      <point x="144" y="-233"/>
      <point x="99" y="-189"/>
      <point x="99" y="-147" type="qcurve"/>
      <point x="99" y="-124"/>
      <point x="122" y="-79"/>
      <point x="150" y="-61" type="qcurve"/>
      <point x="164" y="-53"/>
      <point x="193" y="-33"/>
      <point x="198" y="-6" type="qcurve"/>
      <point x="160" y="-4"/>
      <point x="99" y="25"/>
      <point x="54" y="73"/>
      <point x="30" y="137"/>
      <point x="30" y="173" type="qcurve"/>
      <point x="30" y="219"/>
      <point x="68" y="300"/>
      <point x="131" y="361"/>
      <point x="213" y="397"/>
      <point x="258" y="397" type="qcurve"/>
      <point x="323" y="397"/>
      <point x="404" y="322"/>
      <point x="419" y="264" type="qcurve"/>
      <point x="381" y="250"/>
      <point x="293" y="216"/>
      <point x="201" y="180"/>
      <point x="110" y="145"/>
      <point x="70" y="130" type="qcurve"/>
      <point x="84" y="84"/>
      <point x="159" y="27"/>
      <point x="213" y="27" type="qcurve"/>
      <point x="246" y="27"/>
      <point x="310" y="51"/>
      <point x="334" y="72" type="qcurve"/>
    </contour>
    <contour>
      <point x="376" y="274" type="qcurve"/>
      <point x="362" y="314"/>
      <point x="300" y="362"/>
      <point x="254" y="362" type="qcurve"/>
      <point x="217" y="362"/>
      <point x="149" y="333"/>
      <point x="97" y="282"/>
      <point x="66" y="215"/>
      <point x="65" y="178" type="qcurve"/>
      <point x="65" y="172"/>
      <point x="65" y="159"/>
      <point x="67" y="154" type="qcurve"/>
      <point x="102" y="168"/>
      <point x="182" y="199"/>
      <point x="263" y="230"/>
      <point x="341" y="260"/>
    </contour>
  </outline>
</glyph>
<glyph name="Gdotaccent" format="1">
  <advance width="687"/>
  <unicode hex="0120"/>
  <outline>
    <contour>
      <point x="609" y="572" type="line"/>
      <point x="617" y="640" type="line"/>
      <point x="585" y="657"/>
      <point x="508" y="676"/>
      <point x="469" y="676" type="qcurve"/>
      <point x="398" y="676"/>
      <point x="267" y="619"/>
      <point x="166" y="520"/>
      <point x="105" y="389"/>
      <point x="105" y="315" type="qcurve"/>
      <point x="105" y="256"/>
      <point x="144" y="152"/>
      <point x="217" y="75"/>
      <point x="322" y="31"/>
      <point x="388" y="31" type="qcurve"/>
      <point x="427" y="31"/>
      <point x="509" y="50"/>
      <point x="547" y="69" type="qcurve"/>
      <point x="572" y="277" type="line"/>
      <point x="409" y="277" type="line"/>
      <point x="414" y="313" type="line"/>
      <point x="616" y="313" type="line"/>
      <point x="582" y="42" type="line"/>
      <point x="540" y="19"/>
      <point x="438" y="-8"/>
      <point x="384" y="-8" type="qcurve"/>
      <point x="309" y="-8"/>
      <point x="189" y="41"/>
      <point x="107" y="126"/>
      <point x="63" y="242"/>
      <point x="63" y="309" type="qcurve"/>
      <point x="63" y="394"/>
      <point x="132" y="542"/>
      <point x="246" y="652"/>
      <point x="394" y="715"/>
      <point x="474" y="715" type="qcurve"/>
      <point x="526" y="715"/>
      <point x="622" y="688"/>
      <point x="659" y="665" type="qcurve"/>
      <point x="648" y="572" type="line"/>
    </contour>
    <contour>
      <point x="442" y="774" type="qcurve"/>
      <point x="442" y="788"/>
      <point x="464" y="808"/>
      <point x="477" y="808" type="qcurve"/>
      <point x="488" y="808"/>
      <point x="503" y="792"/>
      <point x="503" y="780" type="qcurve"/>
      <point x="503" y="766"/>
      <point x="482" y="747"/>
      <point x="469" y="747" type="qcurve"/>
      <point x="458" y="747"/>
      <point x="442" y="763"/>
    </contour>
  </outline>
</glyph>
<glyph name="Hcircumflex" format="1">
  <advance width="796"/>
  <unicode hex="0124"/>
  <outline>
    <contour>
      <point x="317" y="707" type="line"/>
      <point x="312" y="670" type="line"/>
      <point x="230" y="670" type="line"/>
      <point x="194" y="376" type="line"/>
      <point x="629" y="376" type="line"/>
      <point x="665" y="670" type="line"/>
      <point x="582" y="670" type="line"/>
      <point x="587" y="707" type="line"/>
      <point x="788" y="707" type="line"/>
      <point x="784" y="670" type="line"/>
      <point x="706" y="670" type="line"/>
      <point x="628" y="37" type="line"/>
      <point x="706" y="37" type="line"/>
      <point x="702" y="0" type="line"/>
      <point x="500" y="0" type="line"/>
      <point x="505" y="37" type="line"/>
      <point x="587" y="37" type="line"/>
      <point x="624" y="337" type="line"/>
      <point x="189" y="337" type="line"/>
      <point x="152" y="37" type="line"/>
      <point x="235" y="37" type="line"/>
      <point x="230" y="0" type="line"/>
      <point x="29" y="0" type="line"/>
      <point x="34" y="37" type="line"/>
      <point x="111" y="37" type="line"/>
      <point x="188" y="670" type="line"/>
      <point x="111" y="670" type="line"/>
      <point x="116" y="707" type="line"/>
    </contour>
    <contour>
      <point x="478" y="872" type="qcurve"/>
      <point x="505" y="838"/>
      <point x="527" y="812" type="qcurve"/>
      <point x="546" y="789"/>
      <point x="580" y="749"/>
      <point x="583" y="744" type="qcurve"/>
      <point x="553" y="744" type="line"/>
      <point x="472" y="826" type="line"/>
      <point x="371" y="744" type="line"/>
      <point x="342" y="744" type="line"/>
      <point x="346" y="748"/>
      <point x="389" y="789"/>
      <point x="414" y="812" type="qcurve"/>
      <point x="443" y="839"/>
    </contour>
  </outline>
</glyph>
<glyph name="hcircumflex" format="1">
  <advance width="503"/>
  <unicode hex="0125"/>
  <outline>
    <contour>
      <point x="387" y="58" type="line"/>
      <point x="384" y="31" type="line"/>
      <point x="458" y="31" type="line"/>
      <point x="454" y="0" type="line"/>
      <point x="270" y="0" type="line"/>
      <point x="274" y="31" type="line"/>
      <point x="349" y="31" type="line"/>
      <point x="351" y="42" type="line"/>
      <point x="352" y="57" type="line"/>
      <point x="353" y="57" type="line"/>
      <point x="379" y="274" type="line"/>
      <point x="382" y="309"/>
      <point x="341" y="359"/>
      <point x="298" y="361" type="qcurve"/>
      <point x="265" y="361"/>
      <point x="205" y="339"/>
      <point x="156" y="301"/>
      <point x="124" y="247"/>
      <point x="120" y="216" type="qcurve"/>
      <point x="99" y="41" type="line"/>
      <point x="98" y="31" type="line"/>
      <point x="174" y="31" type="line"/>
      <point x="170" y="0" type="line"/>
      <point x="-15" y="0" type="line"/>
      <point x="-11" y="31" type="line"/>
      <point x="63" y="31" type="line"/>
      <point x="148" y="727" type="line"/>
      <point x="75" y="727" type="line"/>
      <point x="79" y="758" type="line"/>
      <point x="184" y="758" type="line"/>
      <point x="180" y="727" type="line"/>
      <point x="126" y="287" type="line"/>
      <point x="153" y="335"/>
      <point x="247" y="395"/>
      <point x="306" y="395" type="qcurve"/>
      <point x="362" y="395"/>
      <point x="419" y="331"/>
      <point x="414" y="280" type="qcurve"/>
    </contour>
    <contour>
      <point x="333" y="937" type="line"/>
      <point x="358" y="891"/>
      <point x="406" y="800"/>
      <point x="432" y="755" type="qcurve"/>
      <point x="402" y="755" type="line"/>
      <point x="385" y="786"/>
      <point x="345" y="856"/>
      <point x="327" y="887" type="qcurve"/>
      <point x="303" y="856"/>
      <point x="245" y="786"/>
      <point x="220" y="755" type="qcurve"/>
      <point x="191" y="755" type="line"/>
    </contour>
  </outline>
</glyph>
<glyph name="itilde" format="1">
  <advance width="233"/>
  <unicode hex="0129"/>
  <outline>
    <contour>
      <point x="180" y="0" type="line"/>
      <point x="-5" y="0" type="line"/>
      <point x="-1" y="31" type="line"/>
      <point x="73" y="31" type="line"/>
      <point x="113" y="356" type="line"/>
      <point x="39" y="356" type="line"/>
      <point x="43" y="387" type="line"/>
      <point x="151" y="387" type="line"/>
      <point x="108" y="31" type="line"/>
      <point x="184" y="31" type="line"/>
    </contour>
    <contour>
      <point x="139" y="500" type="qcurve"/>
      <point x="125" y="517"/>
      <point x="103" y="529"/>
      <point x="89" y="529" type="qcurve"/>
      <point x="81" y="529"/>
      <point x="61" y="525"/>
      <point x="41" y="513"/>
      <point x="24" y="492"/>
      <point x="20" y="476" type="qcurve"/>
      <point x="-3" y="479" type="line"/>
      <point x="0" y="498"/>
      <point x="20" y="526"/>
      <point x="46" y="544"/>
      <point x="77" y="553"/>
      <point x="91" y="553" type="qcurve"/>
      <point x="112" y="553"/>
      <point x="144" y="533"/>
      <point x="158" y="516" type="qcurve"/>
      <point x="172" y="499"/>
      <point x="195" y="487"/>
      <point x="209" y="487" type="qcurve"/>
      <point x="216" y="487"/>
      <point x="237" y="491"/>
      <point x="257" y="503"/>
      <point x="273" y="524"/>
      <point x="277" y="540" type="qcurve"/>
      <point x="300" y="537" type="line"/>
      <point x="292" y="499"/>
      <point x="235" y="464"/>
      <point x="206" y="464" type="qcurve"/>
      <point x="185" y="464"/>
      <point x="153" y="483"/>
    </contour>
  </outline>
</glyph>
<glyph name="iogonek" format="1">
  <advance width="232"/>
  <unicode hex="012F"/>
  <outline>
    <contour>
      <point x="180" y="0" type="line"/>
      <point x="-5" y="0" type="line"/>
      <point x="-1" y="31" type="line"/>
      <point x="73" y="31" type="line"/>
      <point x="113" y="356" type="line"/>
      <point x="39" y="356" type="line"/>
      <point x="43" y="387" type="line"/>
      <point x="151" y="387" type="line"/>
      <point x="108" y="31" type="line"/>
      <point x="184" y="31" type="line"/>
    </contour>
    <contour>
      <point x="95" y="0" type="line"/>
      <point x="69" y="0" type="line"/>
      <point x="68" y="-6" type="line"/>
      <point x="63" y="-33"/>
      <point x="33" y="-53"/>
      <point x="19" y="-61" type="qcurve"/>
      <point x="-8" y="-79"/>
      <point x="-31" y="-124"/>
      <point x="-31" y="-147" type="qcurve"/>
      <point x="-31" y="-189"/>
      <point x="13" y="-233"/>
      <point x="48" y="-233" type="qcurve"/>
      <point x="77" y="-233"/>
      <point x="131" y="-201"/>
      <point x="146" y="-169" type="qcurve"/>
      <point x="132" y="-164"/>
      <point x="122" y="-158" type="qcurve"/>
      <point x="114" y="-178"/>
      <point x="78" y="-203"/>
      <point x="55" y="-203" type="qcurve"/>
      <point x="29" y="-203"/>
      <point x="-2" y="-170"/>
      <point x="-2" y="-144" type="qcurve"/>
      <point x="-2" y="-115"/>
      <point x="25" y="-85"/>
      <point x="59" y="-63"/>
      <point x="89" y="-42"/>
      <point x="92" y="-22" type="qcurve"/>
    </contour>
    <contour>
      <point x="121" y="519" type="qcurve"/>
      <point x="121" y="533"/>
      <point x="142" y="553"/>
      <point x="155" y="553" type="qcurve"/>
      <point x="166" y="553"/>
      <point x="181" y="537"/>
      <point x="181" y="525" type="qcurve"/>
      <point x="181" y="511"/>
      <point x="160" y="492"/>
      <point x="147" y="492" type="qcurve"/>
      <point x="136" y="492"/>
      <point x="121" y="508"/>
    </contour>
  </outline>
</glyph>
<glyph name="Lacute" format="1">
  <advance width="600"/>
  <unicode hex="0139"/>
  <outline>
    <contour>
      <point x="317" y="707" type="line"/>
      <point x="312" y="670" type="line"/>
      <point x="229" y="670" type="line"/>
      <point x="152" y="40" type="line"/>
      <point x="513" y="40" type="line"/>
      <point x="522" y="114" type="line"/>
      <point x="561" y="114" type="line"/>
      <point x="549" y="16" type="line"/>
      <point x="541" y="16" type="line"/>
      <point x="539" y="0" type="line"/>
      <point x="29" y="0" type="line"/>
      <point x="34" y="37" type="line"/>
      <point x="110" y="37" type="line"/>
      <point x="188" y="670" type="line"/>
      <point x="111" y="670" type="line"/>
      <point x="116" y="707" type="line"/>
    </contour>
    <contour>
      <point x="340" y="755" type="line"/>
      <point x="446" y="888" type="line"/>
      <point x="484" y="888" type="line"/>
      <point x="369" y="755" type="line"/>
    </contour>
  </outline>
</glyph>
<glyph name="lcaron" format="1">
  <advance width="225"/>
  <unicode hex="013E"/>
  <outline>
    <contour>
      <point x="86" y="52" type="line"/>
      <point x="84" y="38" type="line"/>
      <point x="84" y="31" type="line"/>
      <point x="160" y="31" type="line"/>
      <point x="156" y="0" type="line"/>
      <point x="-29" y="0" type="line"/>
      <point x="-25" y="31" type="line"/>
      <point x="49" y="31" type="line"/>
      <point x="134" y="727" type="line"/>
      <point x="60" y="727" type="line"/>
      <point x="64" y="758" type="line"/>
      <point x="173" y="758" type="line"/>
    </contour>
    <contour>
      <point x="259" y="572" type="qcurve"/>
      <point x="255" y="577"/>
      <point x="249" y="587"/>
      <point x="244" y="592" type="qcurve"/>
      <point x="268" y="612"/>
      <point x="294" y="672"/>
      <point x="291" y="707" type="qcurve"/>
      <point x="322" y="714" type="line"/>
      <point x="326" y="673"/>
      <point x="291" y="599"/>
    </contour>
  </outline>
</glyph>
<glyph name="nacute" format="1">
  <advance width="512"/>
  <unicode hex="0144"/>
  <outline>
    <contour>
      <point x="397" y="58" type="line"/>
      <point x="394" y="31" type="line"/>
      <point x="468" y="31" type="line"/>
      <point x="464" y="0" type="line"/>
      <point x="280" y="0" type="line"/>
      <point x="284" y="31" type="line"/>
      <point x="359" y="31" type="line"/>
      <point x="361" y="42" type="line"/>
      <point x="362" y="57" type="line"/>
      <point x="363" y="57" type="line"/>
      <point x="389" y="274" type="line"/>
      <point x="392" y="309"/>
      <point x="351" y="359"/>
      <point x="308" y="361" type="qcurve"/>
      <point x="275" y="361"/>
      <point x="215" y="339"/>
      <point x="166" y="301"/>
      <point x="134" y="247"/>
      <point x="130" y="216" type="qcurve"/>
      <point x="109" y="41" type="line"/>
      <point x="108" y="31" type="line"/>
      <point x="184" y="31" type="line"/>
      <point x="180" y="0" type="line"/>
      <point x="-5" y="0" type="line"/>
      <point x="-1" y="31" type="line"/>
      <point x="73" y="31" type="line"/>
      <point x="113" y="356" type="line"/>
      <point x="39" y="356" type="line"/>
      <point x="43" y="387" type="line"/>
      <point x="145" y="387" type="line"/>
      <point x="145" y="383"/>
      <point x="142" y="353"/>
      <point x="139" y="319"/>
      <point x="136" y="290"/>
      <point x="136" y="287" type="qcurve"/>
      <point x="163" y="335"/>
      <point x="257" y="395"/>
      <point x="316" y="395" type="qcurve"/>
      <point x="372" y="395"/>
      <point x="429" y="331"/>
      <point x="424" y="280" type="qcurve"/>
    </contour>
    <contour>
      <point x="260" y="481" type="line"/>
      <point x="366" y="614" type="line"/>
      <point x="404" y="614" type="line"/>
      <point x="289" y="481" type="line"/>
    </contour>
  </outline>
</glyph>
<glyph name="uni0145" format="1">
  <advance width="858"/>
  <unicode hex="0145"/>
  <outline>
    <contour>
      <point x="234" y="37" type="line"/>
      <point x="229" y="0" type="line"/>
      <point x="28" y="0" type="line"/>
      <point x="33" y="37" type="line"/>
      <point x="110" y="37" type="line"/>
      <point x="187" y="670" type="line"/>
      <point x="109" y="670" type="line"/>
      <point x="114" y="707" type="line"/>
      <point x="220" y="707" type="line"/>
      <point x="269" y="634"/>
      <point x="380" y="476"/>
      <point x="494" y="317"/>
      <point x="603" y="161"/>
      <point x="649" y="91" type="qcurve"/>
      <point x="665" y="65" type="line"/>
      <point x="666" y="73"/>
      <point x="666" y="89"/>
      <point x="666" y="97" type="qcurve"/>
      <point x="736" y="671" type="line"/>
      <point x="652" y="671" type="line"/>
      <point x="657" y="708" type="line"/>
      <point x="858" y="708" type="line"/>
      <point x="853" y="671" type="line"/>
      <point x="777" y="671" type="line"/>
      <point x="691" y="-32" type="line"/>
      <point x="659" y="15"/>
      <point x="583" y="122"/>
      <point x="502" y="236"/>
      <point x="419" y="352"/>
      <point x="340" y="465"/>
      <point x="268" y="571"/>
      <point x="239" y="617" type="qcurve"/>
      <point x="236" y="622"/>
      <point x="226" y="636"/>
      <point x="222" y="643" type="qcurve"/>
      <point x="222" y="611" type="line"/>
      <point x="151" y="37" type="line"/>
    </contour>
    <contour>
      <point x="425" y="-22" type="line"/>
      <point x="411" y="-48"/>
      <point x="393" y="-80"/>
      <point x="377" y="-109"/>
      <point x="359" y="-142"/>
      <point x="345" y="-168" type="qcurve"/>
      <point x="313" y="-168" type="line"/>
      <point x="326" y="-142"/>
      <point x="342" y="-109"/>
      <point x="356" y="-80"/>
      <point x="372" y="-48"/>
      <point x="385" y="-22" type="qcurve"/>
    </contour>
  </outline>
</glyph>
<glyph name="OE" format="1">
  <advance width="918"/>
  <unicode hex="0152"/>
  <outline>
    <contour>
      <point x="852" y="596" type="line"/>
      <point x="860" y="669" type="line"/>
      <point x="569" y="669" type="line"/>
      <point x="533" y="375" type="line"/>
      <point x="824" y="375" type="line"/>
      <point x="820" y="337" type="line"/>
      <point x="528" y="337" type="line"/>
      <point x="492" y="39" type="line"/>
      <point x="798" y="39" type="line"/>
      <point x="807" y="114" type="line"/>
      <point x="846" y="114" type="line"/>
      <point x="837" y="39" type="line"/>
      <point x="834" y="16" type="line"/>
      <point x="832" y="0" type="line"/>
      <point x="460" y="0" type="line"/>
      <point x="420" y="-8"/>
      <point x="382" y="-8" type="qcurve"/>
      <point x="313" y="-8"/>
      <point x="196" y="42"/>
      <point x="111" y="130"/>
      <point x="63" y="248"/>
      <point x="63" y="316" type="qcurve"/>
      <point x="63" y="397"/>
      <point x="130" y="542"/>
      <point x="243" y="651"/>
      <point x="391" y="715"/>
      <point x="471" y="715" type="qcurve"/>
      <point x="509" y="715"/>
      <point x="546" y="707" type="qcurve"/>
      <point x="905" y="707" type="line"/>
      <point x="903" y="690" type="line"/>
      <point x="891" y="596" type="line"/>
    </contour>
    <contour>
      <point x="466" y="675" type="qcurve"/>
      <point x="395" y="675"/>
      <point x="265" y="618"/>
      <point x="165" y="521"/>
      <point x="105" y="391"/>
      <point x="105" y="319" type="qcurve"/>
      <point x="105" y="259"/>
      <point x="147" y="154"/>
      <point x="222" y="76"/>
      <point x="325" y="31"/>
      <point x="386" y="31" type="qcurve"/>
      <point x="421" y="31"/>
      <point x="450" y="38" type="qcurve"/>
      <point x="528" y="669" type="line"/>
      <point x="499" y="675"/>
    </contour>
  </outline>
</glyph>
<glyph name="uni0157" format="1">
  <advance width="313"/>
  <unicode hex="0157"/>
  <outline>
    <contour>
      <point x="305" y="354" type="line"/>
      <point x="273" y="353"/>
      <point x="214" y="333"/>
      <point x="166" y="296"/>
      <point x="134" y="245"/>
      <point x="130" y="214" type="qcurve"/>
      <point x="108" y="31" type="line"/>
      <point x="192" y="31" type="line"/>
      <point x="188" y="0" type="line"/>
      <point x="-5" y="0" type="line"/>
      <point x="-1" y="31" type="line"/>
      <point x="73" y="31" type="line"/>
      <point x="113" y="356" type="line"/>
      <point x="39" y="356" type="line"/>
      <point x="43" y="387" type="line"/>
      <point x="145" y="387" type="line"/>
      <point x="145" y="383"/>
      <point x="142" y="353"/>
      <point x="139" y="319"/>
      <point x="136" y="290"/>
      <point x="136" y="287" type="qcurve"/>
      <point x="165" y="337"/>
      <point x="264" y="394"/>
      <point x="315" y="395" type="qcurve"/>
    </contour>
    <contour>
      <point x="133" y="-22" type="line"/>
      <point x="119" y="-48"/>
      <point x="101" y="-80"/>
      <point x="85" y="-109"/>
      <point x="67" y="-142"/>
      <point x="53" y="-168" type="qcurve"/>
      <point x="21" y="-168" type="line"/>
      <point x="34" y="-142"/>
      <point x="50" y="-109"/>
      <point x="64" y="-80"/>
      <point x="80" y="-48"/>
      <point x="93" y="-22" type="qcurve"/>
    </contour>
  </outline>
</glyph>
<glyph name="scircumflex" format="1">
  <advance width="333"/>
  <unicode hex="015D"/>
  <outline>
    <contour>
      <point x="53" y="99" type="line"/>
      <point x="47" y="55" type="line"/>
      <point x="61" y="43"/>
      <point x="111" y="26"/>
      <point x="134" y="26" type="qcurve"/>
      <point x="148" y="26"/>
      <point x="183" y="35"/>
      <point x="214" y="54"/>
      <point x="235" y="87"/>
      <point x="235" y="111" type="qcurve"/>
      <point x="235" y="133"/>
      <point x="209" y="161"/>
      <point x="170" y="180"/>
      <point x="124" y="196"/>
      <point x="85" y="218"/>
      <point x="59" y="252"/>
      <point x="59" y="280" type="qcurve"/>
      <point x="59" y="309"/>
      <point x="81" y="352"/>
      <point x="117" y="380"/>
      <point x="161" y="393"/>
      <point x="183" y="393" type="qcurve"/>
      <point x="206" y="393"/>
      <point x="265" y="374"/>
      <point x="284" y="351" type="qcurve"/>
      <point x="277" y="290" type="line"/>
      <point x="247" y="290" type="line"/>
      <point x="251" y="337" type="line"/>
      <point x="238" y="348"/>
      <point x="199" y="359"/>
      <point x="180" y="359" type="qcurve"/>
      <point x="167" y="359"/>
      <point x="137" y="351"/>
      <point x="111" y="334"/>
      <point x="94" y="306"/>
      <point x="94" y="286" type="qcurve"/>
      <point x="94" y="264"/>
      <point x="120" y="237"/>
      <point x="159" y="217"/>
      <point x="205" y="201"/>
      <point x="244" y="178"/>
      <point x="270" y="144"/>
      <point x="270" y="117" type="qcurve"/>
      <point x="270" y="92"/>
      <point x="250" y="47"/>
      <point x="214" y="12"/>
      <point x="162" y="-8"/>
      <point x="129" y="-8" type="qcurve"/>
      <point x="100" y="-8"/>
      <point x="34" y="12"/>
      <point x="15" y="38" type="qcurve"/>
      <point x="23" y="99" type="line"/>
    </contour>
    <contour>
      <point x="212" y="609" type="qcurve"/>
      <point x="239" y="575"/>
      <point x="261" y="549" type="qcurve"/>
      <point x="280" y="526"/>
      <point x="314" y="486"/>
      <point x="317" y="481" type="qcurve"/>
      <point x="287" y="481" type="line"/>
      <point x="206" y="563" type="line"/>
      <point x="105" y="481" type="line"/>
      <point x="76" y="481" type="line"/>
      <point x="80" y="485"/>
      <point x="123" y="526"/>
      <point x="148" y="549" type="qcurve"/>
      <point x="177" y="576"/>
    </contour>
  </outline>
</glyph>
<glyph name="uni0162" format="1">
  <advance width="544"/>
  <unicode hex="0162"/>
  <outline>
    <contour>
      <point x="494" y="572" type="line"/>
      <point x="505" y="667" type="line"/>
      <point x="341" y="667" type="line"/>
      <point x="259" y="0" type="line"/>
      <point x="218" y="0" type="line"/>
      <point x="300" y="667" type="line"/>
      <point x="134" y="667" type="line"/>
      <point x="123" y="572" type="line"/>
      <point x="84" y="572" type="line"/>
      <point x="99" y="699" type="line"/>
      <point x="100" y="707" type="line"/>
      <point x="549" y="707" type="line"/>
      <point x="545" y="667" type="line"/>
      <point x="544" y="667" type="line"/>
      <point x="533" y="572" type="line"/>
    </contour>
    <contour>
      <point x="248" y="-22" type="line"/>
      <point x="234" y="-48"/>
      <point x="216" y="-80"/>
      <point x="200" y="-109"/>
      <point x="182" y="-142"/>
      <point x="168" y="-168" type="qcurve"/>
      <point x="136" y="-168" type="line"/>
      <point x="149" y="-142"/>
      <point x="165" y="-109"/>
      <point x="179" y="-80"/>
      <point x="195" y="-48"/>
      <point x="208" y="-22" type="qcurve"/>
    </contour>
  </outline>
</glyph>
<glyph name="utilde" format="1">
  <advance width="505"/>
  <unicode hex="0169"/>
  <outline>
    <contour>
      <point x="384" y="336" type="line"/>
      <point x="387" y="356" type="line"/>
      <point x="310" y="356" type="line"/>
      <point x="314" y="387" type="line"/>
      <point x="425" y="387" type="line"/>
      <point x="419" y="335" type="line"/>
      <point x="418" y="335" type="line"/>
      <point x="382" y="31" type="line"/>
      <point x="455" y="31" type="line"/>
      <point x="452" y="0" type="line"/>
      <point x="350" y="0" type="line"/>
      <point x="359" y="101" type="line"/>
      <point x="332" y="52"/>
      <point x="237" y="-8"/>
      <point x="179" y="-8" type="qcurve"/>
      <point x="123" y="-8"/>
      <point x="65" y="57"/>
      <point x="70" y="108" type="qcurve"/>
      <point x="101" y="356" type="line"/>
      <point x="27" y="356" type="line"/>
      <point x="31" y="387" type="line"/>
      <point x="139" y="387" type="line"/>
      <point x="132" y="330" type="line"/>
      <point x="105" y="114" type="line"/>
      <point x="103" y="79"/>
      <point x="144" y="29"/>
      <point x="187" y="26" type="qcurve"/>
      <point x="220" y="26"/>
      <point x="280" y="48"/>
      <point x="329" y="86"/>
      <point x="361" y="139"/>
      <point x="365" y="171" type="qcurve"/>
      <point x="385" y="336" type="line"/>
    </contour>
    <contour>
      <point x="273" y="492" type="qcurve"/>
      <point x="259" y="509"/>
      <point x="237" y="521"/>
      <point x="223" y="521" type="qcurve"/>
      <point x="215" y="521"/>
      <point x="195" y="517"/>
      <point x="175" y="505"/>
      <point x="158" y="484"/>
      <point x="154" y="468" type="qcurve"/>
      <point x="131" y="471" type="line"/>
      <point x="134" y="490"/>
      <point x="154" y="518"/>
      <point x="180" y="536"/>
      <point x="211" y="545"/>
      <point x="225" y="545" type="qcurve"/>
      <point x="246" y="545"/>
      <point x="278" y="525"/>
      <point x="292" y="508" type="qcurve"/>
      <point x="306" y="491"/>
      <point x="329" y="479"/>
      <point x="343" y="479" type="qcurve"/>
      <point x="350" y="479"/>
      <point x="371" y="483"/>
      <point x="391" y="495"/>
      <point x="407" y="516"/>
      <point x="411" y="532" type="qcurve"/>
      <point x="434" y="529" type="line"/>
      <point x="426" y="491"/>
      <point x="369" y="456"/>
      <point x="340" y="456" type="qcurve"/>
      <point x="319" y="456"/>
      <point x="287" y="475"/>
    </contour>
  </outline>
</glyph>
<glyph name="Uring" format="1">
  <advance width="724"/>
  <unicode hex="016E"/>
  <outline>
    <contour>
      <point x="300" y="707" type="line"/>
      <point x="295" y="670" type="line"/>
      <point x="214" y="670" type="line"/>
      <point x="161" y="238" type="line"/>
      <point x="155" y="190"/>
      <point x="175" y="113"/>
      <point x="222" y="59"/>
      <point x="291" y="31"/>
      <point x="334" y="31" type="qcurve"/>
      <point x="376" y="31"/>
      <point x="452" y="59"/>
      <point x="512" y="113"/>
      <point x="552" y="190"/>
      <point x="558" y="238" type="qcurve"/>
      <point x="615" y="707" type="line"/>
      <point x="735" y="707" type="line"/>
      <point x="731" y="670" type="line"/>
      <point x="652" y="670" type="line"/>
      <point x="599" y="235" type="line"/>
      <point x="592" y="177"/>
      <point x="544" y="86"/>
      <point x="471" y="24"/>
      <point x="380" y="-8"/>
      <point x="329" y="-8" type="qcurve"/>
      <point x="278" y="-8"/>
      <point x="194" y="24"/>
      <point x="138" y="86"/>
      <point x="112" y="177"/>
      <point x="120" y="235" type="qcurve"/>
      <point x="172" y="670" type="line"/>
      <point x="94" y="670" type="line"/>
      <point x="99" y="707" type="line"/>
    </contour>
    <contour>
      <point x="357" y="804" type="qcurve"/>
      <point x="357" y="836"/>
      <point x="404" y="880"/>
      <point x="436" y="880" type="qcurve"/>
      <point x="463" y="880"/>
      <point x="497" y="845"/>
      <point x="497" y="819" type="qcurve"/>
      <point x="497" y="803"/>
      <point x="484" y="775"/>
      <point x="462" y="754"/>
      <point x="434" y="742"/>
      <point x="418" y="742" type="qcurve"/>
      <point x="392" y="742"/>
      <point x="357" y="778"/>
    </contour>
    <contour>
      <point x="382" y="807" type="qcurve"/>
      <point x="382" y="790"/>
      <point x="405" y="766"/>
      <point x="422" y="766" type="qcurve"/>
      <point x="442" y="766"/>
      <point x="472" y="795"/>
      <point x="472" y="815" type="qcurve"/>
      <point x="472" y="832"/>
      <point x="450" y="856"/>
      <point x="433" y="856" type="qcurve"/>
      <point x="413" y="856"/>
      <point x="382" y="827"/>
    </contour>
  </outline>
</glyph>
<glyph name="Uogonek" format="1">
  <advance width="724"/>
  <unicode hex="0172"/>
  <outline>
    <contour>
      <point x="300" y="707" type="line"/>
      <point x="295" y="670" type="line"/>
      <point x="214" y="670" type="line"/>
      <point x="161" y="238" type="line"/>
      <point x="155" y="190"/>
      <point x="175" y="113"/>
      <point x="222" y="59"/>
      <point x="291" y="31"/>
      <point x="334" y="31" type="qcurve"/>
      <point x="376" y="31"/>
      <point x="452" y="59"/>
      <point x="512" y="113"/>
      <point x="552" y="190"/>
      <point x="558" y="238" type="qcurve"/>
      <point x="615" y="707" type="line"/>
      <point x="735" y="707" type="line"/>
      <point x="731" y="670" type="line"/>
      <point x="652" y="670" type="line"/>
      <point x="599" y="235" type="line"/>
      <point x="592" y="179"/>
      <point x="548" y="92"/>
      <point x="480" y="30"/>
      <point x="395" y="-4"/>
      <point x="347" y="-7" type="qcurve"/>
      <point x="346" y="-22" type="line"/>
      <point x="343" y="-42"/>
      <point x="313" y="-63"/>
      <point x="279" y="-85"/>
      <point x="252" y="-115"/>
      <point x="252" y="-144" type="qcurve"/>
      <point x="252" y="-170"/>
      <point x="282" y="-203"/>
      <point x="308" y="-203" type="qcurve"/>
      <point x="331" y="-203"/>
      <point x="367" y="-178"/>
      <point x="375" y="-158" type="qcurve"/>
      <point x="381" y="-161"/>
      <point x="393" y="-167"/>
      <point x="399" y="-169" type="qcurve"/>
      <point x="384" y="-201"/>
      <point x="331" y="-233"/>
      <point x="302" y="-233" type="qcurve"/>
      <point x="267" y="-233"/>
      <point x="222" y="-189"/>
      <point x="222" y="-147" type="qcurve"/>
      <point x="222" y="-124"/>
      <point x="246" y="-79"/>
      <point x="273" y="-61" type="qcurve"/>
      <point x="279" y="-57"/>
      <point x="294" y="-49"/>
      <point x="308" y="-37"/>
      <point x="318" y="-21"/>
      <point x="320" y="-8" type="qcurve"/>
      <point x="271" y="-7"/>
      <point x="190" y="27"/>
      <point x="136" y="89"/>
      <point x="112" y="178"/>
      <point x="120" y="235" type="qcurve"/>
      <point x="172" y="670" type="line"/>
      <point x="94" y="670" type="line"/>
      <point x="99" y="707" type="line"/>
    </contour>
  </outline>
</glyph>
<glyph name="Ydieresis" format="1">
  <advance width="689"/>
  <unicode hex="0178"/>
  <outline>
    <contour>
      <point x="417" y="37" type="line"/>
      <point x="413" y="0" type="line"/>
      <point x="211" y="0" type="line"/>
      <point x="215" y="37" type="line"/>
      <point x="295" y="37" type="line"/>
      <point x="323" y="255" type="line"/>
      <point x="304" y="294"/>
      <point x="255" y="400"/>
      <point x="204" y="513"/>
      <point x="153" y="624"/>
      <point x="132" y="670" type="qcurve"/>
      <point x="55" y="670" type="line"/>
      <point x="60" y="707" type="line"/>
      <point x="261" y="707" type="line"/>
      <point x="256" y="670" type="line"/>
      <point x="178" y="670" type="line"/>
      <point x="196" y="631"/>
      <point x="237" y="543"/>
      <point x="279" y="452"/>
      <point x="321" y="361"/>
      <point x="339" y="319" type="qcurve"/>
      <point x="348" y="291" type="line"/>
      <point x="353" y="298"/>
      <point x="359" y="311"/>
      <point x="363" y="319" type="qcurve"/>
      <point x="393" y="361"/>
      <point x="456" y="451"/>
      <point x="519" y="543"/>
      <point x="581" y="631"/>
      <point x="609" y="670" type="qcurve"/>
      <point x="531" y="670" type="line"/>
      <point x="536" y="707" type="line"/>
      <point x="739" y="707" type="line"/>
      <point x="735" y="670" type="line"/>
      <point x="657" y="670" type="line"/>
      <point x="364" y="255" type="line"/>
      <point x="337" y="37" type="line"/>
    </contour>
    <contour>
      <point x="466" y="798" type="qcurve"/>
      <point x="466" y="812"/>
      <point x="487" y="832"/>
      <point x="501" y="832" type="qcurve"/>
      <point x="512" y="832"/>
      <point x="527" y="816"/>
      <point x="527" y="804" type="qcurve"/>
      <point x="527" y="790"/>
      <point x="506" y="771"/>
      <point x="493" y="771" type="qcurve"/>
      <point x="482" y="771"/>
      <point x="466" y="787"/>
    </contour>
    <contour>
      <point x="294" y="798" type="qcurve"/>
      <point x="294" y="812"/>
      <point x="315" y="832"/>
      <point x="329" y="832" type="qcurve"/>
      <point x="340" y="832"/>
      <point x="355" y="816"/>
      <point x="355" y="804" type="qcurve"/>
      <point x="355" y="790"/>
      <point x="334" y="771"/>
      <point x="321" y="771" type="qcurve"/>
      <point x="310" y="771"/>
      <point x="294" y="787"/>
    </contour>
  </outline>
</glyph>
<glyph name="Zacute" format="1">
  <advance width="648"/>
  <unicode hex="0179"/>
  <outline>
    <contour>
      <point x="169" y="707" type="qcurve"/>
      <point x="631" y="707" type="line"/>
      <point x="61" y="40" type="line"/>
      <point x="537" y="40" type="line"/>
      <point x="552" y="161" type="line"/>
      <point x="592" y="161" type="line"/>
      <point x="576" y="40" type="line"/>
      <point x="577" y="40" type="line"/>
      <point x="572" y="0" type="line"/>
      <point x="-16" y="0" type="line"/>
      <point x="44" y="71"/>
      <point x="192" y="249"/>
      <point x="347" y="432"/>
      <point x="495" y="606"/>
      <point x="554" y="673" type="qcurve"/>
      <point x="162" y="673" type="line"/>
      <point x="131" y="673"/>
      <point x="99" y="694"/>
      <point x="101" y="723" type="qcurve"/>
      <point x="103" y="743" type="line"/>
      <point x="143" y="743" type="line"/>
      <point x="141" y="730" type="line"/>
      <point x="140" y="719"/>
      <point x="152" y="707"/>
    </contour>
    <contour>
      <point x="364" y="747" type="line"/>
      <point x="470" y="880" type="line"/>
      <point x="508" y="880" type="line"/>
      <point x="393" y="747" type="line"/>
    </contour>
  </outline>
</glyph>
<glyph name="Zcaron" format="1">
  <advance width="648"/>
  <unicode hex="017D"/>
  <outline>
    <contour>
      <point x="169" y="707" type="qcurve"/>
      <point x="631" y="707" type="line"/>
      <point x="61" y="40" type="line"/>
      <point x="537" y="40" type="line"/>
      <point x="552" y="161" type="line"/>
      <point x="592" y="161" type="line"/>
      <point x="576" y="40" type="line"/>
      <point x="577" y="40" type="line"/>
      <point x="572" y="0" type="line"/>
      <point x="-16" y="0" type="line"/>
      <point x="44" y="71"/>
      <point x="192" y="249"/>
      <point x="347" y="432"/>
      <point x="495" y="606"/>
      <point x="554" y="673" type="qcurve"/>
      <point x="162" y="673" type="line"/>
      <point x="131" y="673"/>
      <point x="99" y="694"/>
      <point x="101" y="723" type="qcurve"/>
      <point x="103" y="743" type="line"/>
      <point x="143" y="743" type="line"/>
      <point x="141" y="730" type="line"/>
      <point x="140" y="719"/>
      <point x="152" y="707"/>
    </contour>
    <contour>
      <point x="377" y="741" type="qcurve"/>
      <point x="349" y="773"/>
      <point x="327" y="800" type="qcurve"/>
      <point x="308" y="823"/>
      <point x="275" y="864"/>
      <point x="272" y="869" type="qcurve"/>
      <point x="302" y="869" type="line"/>
      <point x="382" y="786" type="line"/>
      <point x="484" y="869" type="line"/>
      <point x="513" y="869" type="line"/>
      <point x="509" y="864"/>
      <point x="466" y="823"/>
      <point x="441" y="800" type="qcurve"/>
      <point x="412" y="773"/>
    </contour>
  </outline>
</glyph>
<glyph name="breve" format="1">
  <advance width="574"/>
  <unicode hex="02D8"/>
  <outline>
    <contour>
      <point x="325" y="500" type="qcurve"/>
      <point x="292" y="500"/>
      <point x="236" y="524"/>
      <point x="197" y="566"/>
      <point x="178" y="624"/>
      <point x="181" y="657" type="qcurve"/>
      <point x="206" y="657" type="line"/>
      <point x="203" y="630"/>
      <point x="219" y="582"/>
      <point x="251" y="545"/>
      <point x="298" y="524"/>
      <point x="327" y="524" type="qcurve"/>
      <point x="357" y="524"/>
      <point x="409" y="545"/>
      <point x="450" y="582"/>
      <point x="476" y="630"/>
      <point x="480" y="657" type="qcurve"/>
      <point x="505" y="657" type="line"/>
      <point x="501" y="624"/>
      <point x="468" y="566"/>
      <point x="419" y="524"/>
      <point x="358" y="500"/>
    </contour>
  </outline>
</glyph>
<glyph name="hungarumlaut" format="1">
  <advance width="459"/>
  <unicode hex="02DD"/>
  <outline>
    <contour>
      <point x="368" y="481" type="line"/>
      <point x="475" y="614" type="line"/>
      <point x="513" y="614" type="line"/>
      <point x="398" y="481" type="line"/>
    </contour>
    <contour>
      <point x="150" y="481" type="line"/>
      <point x="256" y="614" type="line"/>
      <point x="294" y="614" type="line"/>
      <point x="179" y="481" type="line"/>
    </contour>
  </outline>
</glyph>
<glyph name="endash" format="1">
  <advance width="436"/>
  <unicode hex="2013"/>
  <outline>
    <contour>
      <point x="56" y="176" type="line"/>
      <point x="61" y="212" type="line"/>
      <point x="363" y="212" type="line"/>
      <point x="358" y="176" type="line"/>
    </contour>
  </outline>
</glyph>
<glyph name="quoteleft" format="1">
  <advance width="183"/>
  <unicode hex="2018"/>
  <outline>
    <contour>
      <point x="163" y="592" type="qcurve"/>
      <point x="144" y="572" type="line"/>
      <point x="118" y="599"/>
      <point x="102" y="673"/>
      <point x="116" y="714" type="qcurve"/>
      <point x="144" y="707" type="line"/>
      <point x="133" y="672"/>
      <point x="145" y="612"/>
    </contour>
  </outline>
</glyph>
<glyph name="quoteright" format="1">
  <advance width="186"/>
  <unicode hex="2019"/>
  <outline>
    <contour>
      <point x="113" y="572" type="qcurve"/>
      <point x="109" y="577"/>
      <point x="103" y="587"/>
      <point x="98" y="592" type="qcurve"/>
      <point x="122" y="612"/>
      <point x="148" y="672"/>
      <point x="145" y="707" type="qcurve"/>
      <point x="176" y="714" type="line"/>
      <point x="180" y="673"/>
      <point x="145" y="599"/>
    </contour>
  </outline>
</glyph>
<glyph name="dagger" format="1">
  <advance width="338"/>
  <unicode hex="2020"/>
  <outline>
    <contour>
      <point x="124" y="53" type="line"/>
      <point x="168" y="411" type="line"/>
      <point x="86" y="411" type="line"/>
      <point x="91" y="447" type="line"/>
      <point x="172" y="447" type="line"/>
      <point x="189" y="584" type="line"/>
      <point x="226" y="584" type="line"/>
      <point x="209" y="447" type="line"/>
      <point x="291" y="447" type="line"/>
      <point x="286" y="411" type="line"/>
      <point x="204" y="411" type="line"/>
      <point x="161" y="53" type="line"/>
    </contour>
  </outline>
</glyph>
<glyph name="Omega" format="1">
  <advance width="684"/>
  <unicode hex="2126"/>
  <outline>
    <contour>
      <point x="44" y="35" type="line"/>
      <point x="211" y="35" type="line"/>
      <point x="182" y="50"/>
      <point x="132" y="91"/>
      <point x="95" y="145"/>
      <point x="74" y="215"/>
      <point x="74" y="260" type="qcurve"/>
      <point x="74" y="319"/>
      <point x="113" y="439"/>
      <point x="191" y="535"/>
      <point x="307" y="594"/>
      <point x="385" y="594" type="qcurve"/>
      <point x="451" y="594"/>
      <point x="542" y="546"/>
      <point x="598" y="469"/>
      <point x="620" y="371"/>
      <point x="617" y="321" type="qcurve"/>
      <point x="614" y="262"/>
      <point x="583" y="171"/>
      <point x="533" y="102"/>
      <point x="466" y="53"/>
      <point x="427" y="35" type="qcurve"/>
      <point x="581" y="35" type="line"/>
      <point x="576" y="0" type="line"/>
      <point x="368" y="0" type="line"/>
      <point x="370" y="12" type="line"/>
      <point x="369" y="12" type="line"/>
      <point x="373" y="35" type="line"/>
      <point x="410" y="49"/>
      <point x="479" y="94"/>
      <point x="535" y="159"/>
      <point x="573" y="243"/>
      <point x="579" y="296" type="qcurve"/>
      <point x="586" y="359"/>
      <point x="564" y="457"/>
      <point x="512" y="524"/>
      <point x="431" y="559"/>
      <point x="380" y="559" type="qcurve"/>
      <point x="327" y="559"/>
      <point x="237" y="523"/>
      <point x="167" y="455"/>
      <point x="121" y="356"/>
      <point x="113" y="295" type="qcurve"/>
      <point x="106" y="241"/>
      <point x="127" y="157"/>
      <point x="171" y="94"/>
      <point x="231" y="49"/>
      <point x="263" y="35" type="qcurve"/>
      <point x="260" y="13" type="line"/>
      <point x="258" y="0" type="line"/>
      <point x="39" y="0" type="line"/>
    </contour>
  </outline>
</glyph>
<glyph name="Delta" format="1">
  <advance width="419"/>
  <unicode hex="2206"/>
  <outline>
    <contour>
      <point x="269" y="733" type="line"/>
      <point x="370" y="278" type="line"/>
      <point x="56" y="278" type="line"/>
    </contour>
    <contour>
      <point x="97" y="303" type="line"/>
      <point x="334" y="303" type="line"/>
      <point x="259" y="651" type="line"/>
    </contour>
  </outline>
</glyph>
<glyph name="product" format="1">
  <advance width="442"/>
  <unicode hex="220F"/>
  <outline>
    <contour>
      <point x="111" y="-58" type="line"/>
      <point x="75" y="-58" type="line"/>
      <point x="174" y="753" type="line"/>
      <point x="386" y="753" type="line"/>
      <point x="287" y="-58" type="line"/>
      <point x="251" y="-58" type="line"/>
      <point x="346" y="718" type="line"/>
      <point x="207" y="718" type="line"/>
    </contour>
  </outline>
</glyph>
<glyph name="infinity" format="1">
  <advance width="491"/>
  <unicode hex="221E"/>
  <outline>
    <contour>
      <point x="327" y="231" type="qcurve"/>
      <point x="301" y="231"/>
      <point x="257" y="250"/>
      <point x="246" y="267" type="qcurve"/>
      <point x="231" y="250"/>
      <point x="183" y="231"/>
      <point x="157" y="231" type="qcurve"/>
      <point x="118" y="231"/>
      <point x="80" y="273"/>
      <point x="80" y="296" type="qcurve"/>
      <point x="80" y="309"/>
      <point x="92" y="337"/>
      <point x="116" y="359"/>
      <point x="151" y="373"/>
      <point x="174" y="373" type="qcurve"/>
      <point x="199" y="373"/>
      <point x="243" y="355"/>
      <point x="254" y="338" type="qcurve"/>
      <point x="270" y="355"/>
      <point x="319" y="373"/>
      <point x="345" y="373" type="qcurve"/>
      <point x="383" y="373"/>
      <point x="418" y="332"/>
      <point x="418" y="309" type="qcurve"/>
      <point x="418" y="296"/>
      <point x="407" y="268"/>
      <point x="384" y="246"/>
      <point x="350" y="231"/>
    </contour>
    <contour>
      <point x="263" y="302" type="qcurve"/>
      <point x="261" y="282"/>
      <point x="304" y="256"/>
      <point x="330" y="256" type="qcurve"/>
      <point x="346" y="256"/>
      <point x="370" y="266"/>
      <point x="385" y="281"/>
      <point x="393" y="298"/>
      <point x="393" y="305" type="qcurve"/>
      <point x="393" y="320"/>
      <point x="368" y="348"/>
      <point x="341" y="348" type="qcurve"/>
      <point x="328" y="348"/>
      <point x="301" y="341"/>
      <point x="279" y="329"/>
      <point x="264" y="312"/>
    </contour>
    <contour>
      <point x="237" y="302" type="qcurve"/>
      <point x="238" y="312"/>
      <point x="228" y="329"/>
      <point x="209" y="341"/>
      <point x="184" y="348"/>
      <point x="171" y="348" type="qcurve"/>
      <point x="140" y="348"/>
      <point x="109" y="315"/>
      <point x="109" y="299" type="qcurve"/>
      <point x="109" y="284"/>
      <point x="132" y="256"/>
      <point x="160" y="256" type="qcurve"/>
      <point x="186" y="256"/>
      <point x="235" y="282"/>
    </contour>
  </outline>
</glyph>
<glyph name="notequal" format="1">
  <advance width="667"/>
  <unicode hex="2260"/>
  <outline>
    <contour>
      <point x="597" y="369" type="line"/>
      <point x="592" y="333" type="line"/>
      <point x="396" y="333" type="line"/>
      <point x="358" y="293"/>
      <point x="282" y="213"/>
      <point x="244" y="174" type="qcurve"/>
      <point x="573" y="174" type="line"/>
      <point x="568" y="138" type="line"/>
      <point x="210" y="138" type="line"/>
      <point x="72" y="-5" type="line"/>
      <point x="54" y="14" type="line"/>
      <point x="172" y="138" type="line"/>
      <point x="60" y="138" type="line"/>
      <point x="65" y="174" type="line"/>
      <point x="207" y="174" type="line"/>
      <point x="360" y="333" type="line"/>
      <point x="84" y="333" type="line"/>
      <point x="89" y="369" type="line"/>
      <point x="395" y="369" type="line"/>
      <point x="475" y="451"/>
      <point x="547" y="527" type="qcurve"/>
      <point x="565" y="508" type="line"/>
      <point x="431" y="369" type="line"/>
    </contour>
  </outline>
</glyph>
<glyph name="lozenge" format="1">
  <advance width="418"/>
  <unicode hex="25CA"/>
  <outline>
    <contour>
      <point x="67" y="388" type="line"/>
      <point x="266" y="733" type="line"/>
      <point x="381" y="388" type="line"/>
      <point x="182" y="43" type="line"/>
    </contour>
    <contour>
      <point x="97" y="388" type="line"/>
      <point x="191" y="116" type="line"/>
      <point x="351" y="388" type="line"/>
      <point x="257" y="659" type="line"/>
    </contour>
  </outline>
</glyph>
